<svg id="Слой_1" data-name="Слой 1" xmlns="http://www.w3.org/2000/svg" viewBox="0 0 612 396"><defs><style>.cls-1{fill:#013b0c;}.cls-2{fill:#fff;}.cls-3{fill:#fffffe;}.cls-4{fill:#ff7835;}.cls-5{fill:#f4f0e2;}.cls-6{fill:#8cae9a;}.cls-7{fill:#fefefe;}.cls-8{fill:#ff976e;}.cls-9{fill:#fcd3c2;}.cls-10{fill:#ffd4c2;}.cls-11{fill:#ffc6aa;}.cls-12{fill:#d52548;}.cls-13{fill:#556111;}.cls-14{fill:#f27f49;}</style></defs><title>Монтажная область 1</title><path class="cls-1" d="M.41,96.18V91.7a1.79,1.79,0,0,0,.76-1.37A26.85,26.85,0,0,1,6.3,78.7a52,52,0,0,1,11.15-11,102.86,102.86,0,0,1,20.1-11.51c15-6.69,30.78-10.93,46.91-13.87,6.95-1.27,13.94-2.23,21-3,6.22-.67,12.45-1.17,18.69-1.43,8-.33,16-.47,24-.23s15.75.68,23.59,1.46q11.35,1.12,22.6,3.09a253.76,253.76,0,0,1,29.9,7,156.24,156.24,0,0,1,33.15,13.87,1.63,1.63,0,0,0,2-.13q8.38-5.61,16.79-11.17l40.55-26.94,22.57-15A6.78,6.78,0,0,0,341,8.51,20.47,20.47,0,0,1,355.26.71c1.52,0,3,0,4.57,0a17.26,17.26,0,0,0,3.17,0c.67.09,1.35.16,2,.26A61.74,61.74,0,0,1,380.7,5.89a122.91,122.91,0,0,1,23,13.84,214.77,214.77,0,0,1,31.54,29.14A303.3,303.3,0,0,1,485.59,126a215.12,215.12,0,0,1,15.86,47.81,115.31,115.31,0,0,1,2.28,19.6,66.36,66.36,0,0,1-1.24,15.4,63.72,63.72,0,0,1-2,6.81c-.66,0-1.33-.08-2-.15l-5.76-.58-.09-.78a23.86,23.86,0,0,0,3.41-6.46,42.38,42.38,0,0,0,2.35-12.36,87.52,87.52,0,0,0-.87-16.67,58.4,58.4,0,0,0-4.07-15.1c-.35-.81-.67-1.63-1-2.45a56.83,56.83,0,0,1-3.91-13.45,30.48,30.48,0,0,0-4.5-11.92c-.76-1.21-1.49-2.43-2.23-3.65a62.8,62.8,0,0,1-4.25-8.11c-1.33-3.12-2.7-6.23-4-9.36a82.77,82.77,0,0,0-10.19-18c-.94-1.25-1.83-2.53-2.76-3.79a110.86,110.86,0,0,1-8.34-13c-.9-1.67-1.86-3.32-2.81-5a78.66,78.66,0,0,0-8.28-11.6c-3-3.52-6.25-6.8-9.53-10.06-3.81-3.78-7.62-7.56-11.38-11.39-4.76-4.85-9.39-9.83-14.33-14.5a61.76,61.76,0,0,0-22.68-14c-3.6-1.22-7.18-2.49-10.79-3.66a41.76,41.76,0,0,0-8.73-2,18.26,18.26,0,0,0-13.83,4.21,10.4,10.4,0,0,0-4,6.88,63.71,63.71,0,0,1-2.45,10.71,20.34,20.34,0,0,0-.71,8.26c.26,2.77.48,5.55.63,8.33a106.78,106.78,0,0,0,2.33,17.35c1.26,5.7,2.62,11.38,3.73,17.11a45.45,45.45,0,0,0,3.79,11.36c.45.91.89,1.84,1.37,2.73q2.63,4.83,5.28,9.65a71,71,0,0,1,4.41,8.94,105.3,105.3,0,0,0,11.09,21.27c3.89,5.82,7.65,11.72,11.15,17.77.27.47.57.93.85,1.39a61.9,61.9,0,0,0,9,11.58c4.67,4.75,9.57,9.26,13.94,14.3-.19.57-.63.37-1,.28-3-.7-6-1.45-9-2.12a57.29,57.29,0,0,0-6.69-1.48,32.41,32.41,0,0,0-5.27-1.32,207.91,207.91,0,0,0-20.55-3.6c-1.81-.22-3.62-.46-5.43-.69-.09-.26-.19-.51-.25-.77a1,1,0,0,0-1.19-.84c-.13,0-.27,0-.41,0l-17.29-.16c-.41,0-.81,0-1.22,0s-.59.45-.62.86c-.27,0-.54,0-.81,0-3.76-.54-7.52-1.11-11.28-1.62-3.36-.46-6.73-.89-10.1-1.27-4.38-.5-8.77-.93-13.15-1.39a1.4,1.4,0,0,1-.27-.3,1.36,1.36,0,0,0-1.34-1c-3.6-.11-7.19-.29-10.79-.46-1.08-.05-2.17-.18-3.25-.22-2.17-.09-4.34-.15-6.52-.22a.79.79,0,0,0-.83.45l-10.55-.32c-5.14-.14-10.28,0-15.42.19-4.53.16-9.05.47-13.56,1-.42-.17-1.06.17-1.26-.41-.3-.89-.87-.82-1.61-.68-5.14.93-10.3,1.79-15.44,2.74a18.1,18.1,0,0,0-4.3.92c0,.83.72,1.39.56,2.19a5.74,5.74,0,0,1-2,.41c-5.42,0-10.83.19-16.23.48-4.59.25-9.19.57-13.78.9-1.82.13-3.63.38-5.44.57-.16-.31-.37-.6-.74-.6a14.66,14.66,0,0,0-1.82.13c-1.4.2-2.8.45-4.21.64q-7.93,1.08-15.87,2.12a1,1,0,0,0-.92.9,140.23,140.23,0,0,0-19.78,4.66,69.25,69.25,0,0,0-13,5.34c-1.42.79-2.78,1.7-4.2,2.5a92,92,0,0,0-13.09,9,85.69,85.69,0,0,0-17.94,19.59c-8.31,12.76-11.83,26.67-10,41.84a23.49,23.49,0,0,0,.82,4.6,1,1,0,0,0,.2.9l.36,2.39c-.4-.06-.81-.08-1.2-.17-3.76-.9-7.53-1.76-11.27-2.73-5.71-1.48-11.43-2.9-17-4.82A111.16,111.16,0,0,1,15.4,235,89.73,89.73,0,0,1,3.7,222.31a5.6,5.6,0,0,1-1.26-3.72c.1-3.6,0-7.2,0-10.8q0-25-.07-49.92,0-21.8-.05-43.6c0-3.87,0-7.74-.09-11.61A7,7,0,0,0,2,100.85,25.84,25.84,0,0,1,1.1,97.1,1,1,0,0,0,.41,96.18Zm252.84-29.1a6.65,6.65,0,0,0-.61-.5A100,100,0,0,0,237.1,59a64.74,64.74,0,0,0-10.83-2.78,64.26,64.26,0,0,1-15.54-4.72c-1-.49-2.14-.87-3.22-1.27a22.79,22.79,0,0,0-5.95-1.32q-3.86-.32-7.73-.44a57.77,57.77,0,0,1-7.51-.6c-4.69-.76-9.36-1.65-14-2.47A90.24,90.24,0,0,0,161.17,44a111.86,111.86,0,0,0-12.84.13,141.72,141.72,0,0,1-21.79-.39,82.75,82.75,0,0,0-13.85,0A134.36,134.36,0,0,0,94.4,46.64c-7.89,1.74-15.82,3.26-23.77,4.7-5.21.94-10.41,1.94-15.55,3.23A62.37,62.37,0,0,0,36,62.48,168.4,168.4,0,0,0,17.56,76.61a25.86,25.86,0,0,0-4.3,4.89A19,19,0,0,0,9.9,92.63c0,4.09,1.27,7.57,4.53,10.23A58.75,58.75,0,0,1,22.13,111a18.67,18.67,0,0,0,5.33,4.37c3.8,2.11,7.56,4.28,11.35,6.41a107.15,107.15,0,0,0,14,6.59c6.71,2.58,13.47,5,20.12,7.8a24,24,0,0,0,2.51.84,63.53,63.53,0,0,0,12,2c3.86.35,7.73.56,11.58.92a77.15,77.15,0,0,1,10.28,1.49c2.18.5,4.39.89,6.61,1.21A126.52,126.52,0,0,0,133,143.78c5.16.05,10.33-.06,15.49.16,3.46.15,6.92.35,10.39.42a65.63,65.63,0,0,0,6.72-.19A84.58,84.58,0,0,0,178,142.08a159.84,159.84,0,0,1,16.83-3,50.52,50.52,0,0,0,12.06-2.81,40.91,40.91,0,0,1,12.32-2.53,24.15,24.15,0,0,0,9.94-2.72q3.33-1.77,6.63-3.58a25.51,25.51,0,0,1,5.43-2.28c1.66-.46,1.66-.47,1.39-2.18,0-.2-.06-.4-.1-.6A91.52,91.52,0,0,1,241.12,110a101,101,0,0,1,1.55-24.15,79.84,79.84,0,0,1,3.6-13.14A4.08,4.08,0,0,1,248,70.58C249.72,69.5,251.39,68.33,253.25,67.09Z"/><path class="cls-2" d="M500.45,215.64a63.7,63.7,0,0,0,2-6.81,66.36,66.36,0,0,0,1.24-15.4,115.31,115.31,0,0,0-2.28-19.6A215.12,215.12,0,0,0,485.59,126a303.3,303.3,0,0,0-50.37-77.14,214.77,214.77,0,0,0-31.54-29.14,122.91,122.91,0,0,0-23-13.84A61.74,61.74,0,0,0,365,1c-.67-.11-1.35-.18-2-.26a.46.46,0,0,1,0-.37H612.61V300.12a2.36,2.36,0,0,1-.32-.72,12.16,12.16,0,0,0-.83-3.35c-.74-2-1.42-4.11-2.26-6.11a111.37,111.37,0,0,0-32.91-43.65A131.53,131.53,0,0,0,538.71,225a171.25,171.25,0,0,0-27.21-7.6C507.84,216.7,504.17,216,500.45,215.64Z"/><path class="cls-3" d="M355.26.71A20.47,20.47,0,0,0,341,8.51a6.78,6.78,0,0,1-1.7,1.43l-22.57,15L276.19,51.87Q267.79,57.45,259.4,63a1.63,1.63,0,0,1-2,.13A156.24,156.24,0,0,0,224.24,49.3a253.76,253.76,0,0,0-29.9-7q-11.24-2-22.6-3.09C163.9,38.4,156,38,148.16,37.72s-16-.11-24,.23c-6.24.26-12.47.76-18.69,1.43-7,.75-14,1.72-21,3-16.13,2.95-31.89,7.19-46.91,13.87a102.86,102.86,0,0,0-20.1,11.51A52,52,0,0,0,6.3,78.7,26.85,26.85,0,0,0,1.17,90.32,1.79,1.79,0,0,1,.41,91.7V.34H355.25A.4.4,0,0,1,355.26.71Z"/><path class="cls-2" d="M612.61,300.93v75.86H265.11a4.33,4.33,0,0,1,2-.82c1.44-.38,2.89-.71,4.31-1.13,3.58-1.05,7-2.46,10.5-3.82a57.56,57.56,0,0,1,8.87-2.87,27.38,27.38,0,0,1,3.77-.71,26,26,0,0,1,10,1.11,26.08,26.08,0,0,0,8.38,1.3h3.67a4.35,4.35,0,0,0,1.42-.09,9,9,0,0,1,3-.32,3.16,3.16,0,0,0,1-.07,23.11,23.11,0,0,1,4.19-.68c3.33-.59,6.63-1.27,9.88-2.19a36.13,36.13,0,0,1,10-1.54c.82,0,1.63,0,2.45,0a6.26,6.26,0,0,1,1.61.18,7.53,7.53,0,0,0,2,.22,36.13,36.13,0,0,0,3.83-.33,46.22,46.22,0,0,0,5.4-.82,47.42,47.42,0,0,0,11.89-4,65.71,65.71,0,0,0,7.5-4.09,62.94,62.94,0,0,0,6.54-4.79,14.91,14.91,0,0,1,3.54-2.34c1.54-.71,3.05-1.49,4.64-2.08a34.32,34.32,0,0,1,10.45-2.3,4,4,0,0,0,1.2-.14,7.06,7.06,0,0,1,2.21-.26,40.62,40.62,0,0,1,4.44.36,28.81,28.81,0,0,1,4.6.68,11.59,11.59,0,0,0,4.45.08,47.76,47.76,0,0,0,8-2.11,55.85,55.85,0,0,0,10.35-4.68,50.7,50.7,0,0,0,7.72-5.58,37.58,37.58,0,0,0,6.75-7.83,39.86,39.86,0,0,1,6.82-8.57,10.84,10.84,0,0,1,2.64-1.86c1.17-.55,2.31-1.15,3.44-1.78a19.13,19.13,0,0,0,4.09-3.65,11.37,11.37,0,0,0,3.61-8.55,8.93,8.93,0,0,1,1.7-5.73,1.63,1.63,0,0,0,.34-.94,16.25,16.25,0,0,1,3.17,1.37,128.34,128.34,0,0,0,16.21,6.55,32.35,32.35,0,0,0,5.92,1.42,21.71,21.71,0,0,1,3.38.69c4.64,1.29,9.27,2.63,13.94,3.77a257,257,0,0,0,29,5.46c5,.63,10,1.18,15,1.41a173.17,173.17,0,0,0,22.19-.19,123.79,123.79,0,0,0,13.1-1.76,44,44,0,0,0,6.11-1.56c.63-.22.68-.5.19-1a8,8,0,0,0-.59-.56c-1.44-1.24-2.86-2.51-4.35-3.7A166.88,166.88,0,0,0,582,292.53a388.56,388.56,0,0,0-39.75-20.15c-3.72-1.66-7.46-3.26-11.18-4.89v-.61c1.5.42,3,.81,4.51,1.25,9.11,2.72,18,6.08,26.78,9.68,14.83,6.07,29.37,12.78,43.75,19.82C608.27,298.7,610.43,299.83,612.61,300.93Z"/><path class="cls-2" d="M.41,96.18a1,1,0,0,1,.7.92A25.84,25.84,0,0,0,2,100.85a7,7,0,0,1,.21,1.81c0,3.87.08,7.74.09,11.61q0,21.8.05,43.6,0,25,.07,49.92c0,3.6.1,7.2,0,10.8a5.6,5.6,0,0,0,1.26,3.72A89.73,89.73,0,0,0,15.4,235a111.16,111.16,0,0,0,38.94,22.7c5.59,1.91,11.31,3.34,17,4.82,3.74,1,7.51,1.83,11.27,2.73.39.09.8.12,1.2.17.08.26.18.51.25.77a90.64,90.64,0,0,0,6.39,17.06,11.39,11.39,0,0,1,.47,1.33c-.37.28-.35.69-.4,1.1-.16,1.47-.33,2.95-.54,4.42s-.43,2.66-.68,4-.21,2.59-.51,3.8a13.2,13.2,0,0,0,.48,6.78,4.69,4.69,0,0,0,1.34,2.24c.54.51,1.06,1.05,1.58,1.59a.74.74,0,0,1,.23.74c-.51,1.6-.18,3.24-.26,4.86a8,8,0,0,0,.07,2.23,24.31,24.31,0,0,0,1.94,5.76q2,3.67,3.89,7.38a11.71,11.71,0,0,1,1.05,3.27,18.66,18.66,0,0,0,8.27,12.71,30.8,30.8,0,0,0,7.73,3.57,31.85,31.85,0,0,1,5.46,2.2,8.2,8.2,0,0,1,3.66,3.11,22.65,22.65,0,0,0,1.77,2.47,15.16,15.16,0,0,0,3.58,3.58,21.42,21.42,0,0,0,11.63,3.74,6.78,6.78,0,0,1,2,.22,4.27,4.27,0,0,0,1.4.17,15.49,15.49,0,0,0,4.85-.34,3.88,3.88,0,0,1,1,0,27.4,27.4,0,0,1,3.83.35,26.85,26.85,0,0,1,4.78.82c2.54.7,5.1,1.36,7.61,2.14a33.28,33.28,0,0,0,7.53,1.5,28.29,28.29,0,0,0,8.51-.25,4.15,4.15,0,0,1,1-.07c2.24,0,4.43-.65,6.68-.44a1.82,1.82,0,0,0,.79-.17,6.82,6.82,0,0,1,1.81-.21c1.18-.14,2.28.39,3.42.38a27.72,27.72,0,0,1,6.78,1.13q6.59,1.65,13.12,3.54A38.2,38.2,0,0,0,227,374.39a45.09,45.09,0,0,0,7.28-.54c2.53-.4,5.07-.76,7.61-1.05a21.23,21.23,0,0,1,10.4,1.16,56.79,56.79,0,0,0,6.77,2.1,1.86,1.86,0,0,1,1.18.73H.41Z"/><path class="cls-4" d="M531,267.49c3.73,1.63,7.47,3.24,11.18,4.89A388.56,388.56,0,0,1,582,292.53a166.88,166.88,0,0,1,19.71,13.37c1.48,1.19,2.9,2.46,4.35,3.7a8,8,0,0,1,.59.56c.48.51.43.79-.19,1a44,44,0,0,1-6.11,1.56,123.79,123.79,0,0,1-13.1,1.76,173.17,173.17,0,0,1-22.19.19c-5-.23-10-.78-15-1.41a257,257,0,0,1-29-5.46c-4.67-1.15-9.3-2.48-13.94-3.77a21.71,21.71,0,0,0-3.38-.69,32.35,32.35,0,0,1-5.92-1.42,128.34,128.34,0,0,1-16.21-6.55,16.25,16.25,0,0,0-3.17-1.37,18,18,0,0,0-3.7-2c-.35-.2-.69-.42-1.05-.61-6.77-3.52-13.41-7.27-20-11.17a4.64,4.64,0,0,0-2.57-1.07c0-.59.47-.8.92-1,1.73-.59,3.46-1.2,5.21-1.72q5.36-1.56,10.74-3c3-.81,6-1.67,9-2.29,3.78-.77,7.5-1.75,11.18-2.88,5.57-1.71,11.05-3.69,16.46-5.86a12.65,12.65,0,0,0,1.46-.73.62.62,0,0,0,.16-1c-.76-.68-1.5-1.38-2.3-2-2.14-1.66-4.3-3.29-6.46-4.92-4.22-3.19-8.68-6-13.19-8.79-3-1.84-6.21-3.35-9.36-4.93a90.45,90.45,0,0,0-11.64-4.82A78.87,78.87,0,0,0,450,231.91a47.42,47.42,0,0,0-8.27-.75c-2.24.05-4.48,0-6.73,0a10.25,10.25,0,0,1-2.42-.23c-1.17-.28-2.39-.37-3.59-.54l-.37-.45a16.53,16.53,0,0,0-.13-2.57,16,16,0,0,1-.26-3.55,6,6,0,0,1,.81,0,42.18,42.18,0,0,0,7.45.81,1.28,1.28,0,0,1,.41,0c2.16.72,4.48,0,6.64.76a15.57,15.57,0,0,1,4.22.53,107.82,107.82,0,0,1,12.41,3,128.76,128.76,0,0,1,18.11,7.24c1.77.85,3.46,1.87,5.21,2.76,3.21,1.64,6.25,3.54,9.29,5.47,3.78,2.4,7.52,4.84,11.05,7.6a81.49,81.49,0,0,1,6.56,5.13,18.64,18.64,0,0,0,1.94,1.48.48.48,0,0,0,.75-.35,20.85,20.85,0,0,0-.52-6.46A57.7,57.7,0,0,0,508,239a67,67,0,0,0-3.33-6.3c-1.24-2-2.4-4.09-3.66-6.1-1.84-2.93-3.94-5.67-6-8.47-.79-1.09-1.92-1.94-2.38-3.28l5.76.58c.66.06,1.32.1,2,.15,3.71.41,7.39,1.06,11,1.78a171.25,171.25,0,0,1,27.21,7.6,131.53,131.53,0,0,1,37.59,21.26,111.37,111.37,0,0,1,32.91,43.65c.84,2,1.52,4.07,2.26,6.11a12.16,12.16,0,0,1,.83,3.35,2.36,2.36,0,0,0,.32.72v.82c-2.18-1.1-4.34-2.23-6.54-3.3-14.39-7-28.93-13.75-43.75-19.82-8.79-3.6-17.67-7-26.78-9.68-1.49-.45-3-.84-4.51-1.25a3.54,3.54,0,0,0-2.41-.49A4.55,4.55,0,0,0,531,267.49Zm-3.1-1.37s0-.12,0-.14a.21.21,0,0,0-.18,0c-.15.09-.13.19,0,.23S527.88,266.14,527.94,266.12Z"/><path class="cls-5" d="M474.73,292a18,18,0,0,1,3.7,2,1.63,1.63,0,0,1-.34.94,8.93,8.93,0,0,0-1.7,5.73,11.37,11.37,0,0,1-3.61,8.55,19.13,19.13,0,0,1-4.09,3.65c-1.12.63-2.27,1.23-3.44,1.78a10.84,10.84,0,0,0-2.64,1.86,39.86,39.86,0,0,0-6.82,8.57,37.58,37.58,0,0,1-6.75,7.83,50.7,50.7,0,0,1-7.72,5.58A55.85,55.85,0,0,1,431,343.17a47.76,47.76,0,0,1-8,2.11,11.59,11.59,0,0,1-4.45-.08,28.81,28.81,0,0,0-4.6-.68,40.62,40.62,0,0,0-4.44-.36,7.06,7.06,0,0,0-2.21.26,4,4,0,0,1-1.2.14,34.32,34.32,0,0,0-10.45,2.3c-1.58.59-3.1,1.38-4.64,2.08a14.91,14.91,0,0,0-3.54,2.34,62.94,62.94,0,0,1-6.54,4.79,65.71,65.71,0,0,1-7.5,4.09,47.42,47.42,0,0,1-11.89,4,46.22,46.22,0,0,1-5.4.82,36.13,36.13,0,0,1-3.83.33,7.53,7.53,0,0,1-2-.22,6.26,6.26,0,0,0-1.61-.18c-.81,0-1.63,0-2.45,0a36.13,36.13,0,0,0-10,1.54c-3.25.92-6.55,1.6-9.88,2.19a23.11,23.11,0,0,0-4.19.68,3.16,3.16,0,0,1-1,.07,9,9,0,0,0-3,.32,4.35,4.35,0,0,1-1.42.09H313a26.08,26.08,0,0,1-8.38-1.3,26,26,0,0,0-10-1.11,27.38,27.38,0,0,0-3.77.71A57.56,57.56,0,0,0,282,371c-3.47,1.35-6.92,2.76-10.5,3.82-1.43.42-2.88.75-4.31,1.13a4.33,4.33,0,0,0-2,.82h-4.89a1.86,1.86,0,0,0-1.18-.73,56.79,56.79,0,0,1-6.77-2.1,21.23,21.23,0,0,0-10.4-1.16c-2.53.3-5.08.65-7.61,1.05a45.09,45.09,0,0,1-7.28.54,38.2,38.2,0,0,1-10.59-1.52q-6.52-1.9-13.12-3.54a27.72,27.72,0,0,0-6.78-1.13c-1.14,0-2.24-.52-3.42-.38a6.82,6.82,0,0,0-1.81.21,1.82,1.82,0,0,1-.79.17c-2.25-.21-4.44.48-6.68.44a4.15,4.15,0,0,0-1,.07,28.29,28.29,0,0,1-8.51.25,33.28,33.28,0,0,1-7.53-1.5c-2.52-.78-5.07-1.44-7.61-2.14a26.85,26.85,0,0,0-4.78-.82,27.4,27.4,0,0,0-3.83-.35,3.88,3.88,0,0,0-1,0,15.49,15.49,0,0,1-4.85.34,4.27,4.27,0,0,1-1.4-.17,6.78,6.78,0,0,0-2-.22,21.42,21.42,0,0,1-11.63-3.74,15.16,15.16,0,0,1-3.58-3.58,22.65,22.65,0,0,1-1.77-2.47,8.2,8.2,0,0,0-3.66-3.11,31.85,31.85,0,0,0-5.46-2.2,30.8,30.8,0,0,1-7.73-3.57,18.66,18.66,0,0,1-8.27-12.71,11.71,11.71,0,0,0-1.05-3.27q-1.92-3.7-3.89-7.38a24.31,24.31,0,0,1-1.94-5.76,8,8,0,0,1-.07-2.23c.07-1.62-.26-3.26.26-4.86a.74.74,0,0,0-.23-.74c-.51-.54-1-1.08-1.58-1.59a4.69,4.69,0,0,1-1.34-2.24,13.2,13.2,0,0,1-.48-6.78c.3-1.21.27-2.54.51-3.8s.49-2.65.68-4,.38-2.94.54-4.42c0-.41,0-.82.4-1.1,1.4,2.08,2.48,4.34,3.69,6.53a1.43,1.43,0,0,0-.82,1.3,23.28,23.28,0,0,1-.5,3.6,21.6,21.6,0,0,0-.26,6.08,2.75,2.75,0,0,0,2.29,2.94,11.13,11.13,0,0,0,2.19.39c.56,0,.74.31.54.8-.32.82-.64,1.64-1,2.45a11,11,0,0,0-.7,6.38,21.22,21.22,0,0,0,2.79,7.37,47.5,47.5,0,0,1,3.05,5.73,34.18,34.18,0,0,1,1.42,5.06,13.88,13.88,0,0,0,3.85,6.81,19.6,19.6,0,0,0,6.88,4.21c2.1.75,4.22,1.46,6.32,2.23a16.47,16.47,0,0,1,7.49,6c.86,1.14,1.79,2.2,2.72,3.28a12,12,0,0,0,6.31,3.47,22.88,22.88,0,0,0,6.41.83c2.92-.05,5.85,0,8.77,0a29.44,29.44,0,0,1,5.23.59,58.64,58.64,0,0,1,8.62,2.28c1.67.52,3.39.91,5.11,1.29,1.2.27,2.42.24,3.6.54a12.25,12.25,0,0,0,4.85.11,26.35,26.35,0,0,1,3.43-.29,3.21,3.21,0,0,0,1-.06c1.82-.67,3.81,0,5.61-.74a48.66,48.66,0,0,1,9.93.47,111.35,111.35,0,0,1,11,2.69c3.37,1,6.74,2,10.18,2.74,1.19.27,2.41.31,3.6.51a18.54,18.54,0,0,0,5.07,0c.86-.1,1.73-.27,2.61-.29a4,4,0,0,0,1.21-.12,22.76,22.76,0,0,1,4-.6,20,20,0,0,1,3.4-.5,12,12,0,0,0,3.63-.33,3.75,3.75,0,0,1,2.21.1,4,4,0,0,0,1,.21,30.26,30.26,0,0,1,8,2.06,22.52,22.52,0,0,0,7.28,1.64,19.3,19.3,0,0,0,3.79-.64A71.52,71.52,0,0,0,278.16,368a95.32,95.32,0,0,1,9.74-3.49,27.86,27.86,0,0,1,7.58-1.17c1,0,2,0,3.06,0a21.28,21.28,0,0,1,7.18,1.14,22,22,0,0,0,5.78,1c1.81,0,3.59.11,5.41,0a65.37,65.37,0,0,0,8.25-.88c.66-.12,1.32-.31,2-.39a43,43,0,0,0,7.31-1.61,35.44,35.44,0,0,1,11-1.69c2.65.06,5.3,0,8,0a36.4,36.4,0,0,0,4.64-.33,47.09,47.09,0,0,0,12.61-3.73,54.9,54.9,0,0,0,12.17-7.31c1-.8,1.93-1.7,3-2.47a31.86,31.86,0,0,1,8.33-4.18,50.39,50.39,0,0,1,15.48-2.79c.81,0,1.63,0,2.45,0a30.57,30.57,0,0,1,5.82.69,10.36,10.36,0,0,0,3.18.45c1.12-.19,2.27-.31,3.39-.58a54.7,54.7,0,0,0,13.61-5.2,44.59,44.59,0,0,0,11.73-9.31,6.35,6.35,0,0,0,.49-.64c1.67-2.38,3.3-4.79,5-7.14,2.5-3.44,5.39-6.42,9.43-8.13a17,17,0,0,0,3.6-2.27,11.21,11.21,0,0,0,3.37-4.52,2.16,2.16,0,0,0,.22-.77c0-1.49.63-2.92.44-4.43a4.5,4.5,0,0,1,.27-1.59A16,16,0,0,1,474.73,292Z"/><path class="cls-6" d="M355.26.71a.4.4,0,0,0,0-.38H363a.46.46,0,0,0,0,.37,17.27,17.27,0,0,1-3.17,0C358.3.72,356.78.71,355.26.71Z"/><path class="cls-7" d="M253.25,67.09c-1.86,1.24-3.53,2.41-5.25,3.49a4.08,4.08,0,0,0-1.72,2.16,79.84,79.84,0,0,0-3.6,13.14A101,101,0,0,0,241.12,110a91.52,91.52,0,0,0,1.41,12.34c0,.2.07.4.1.6.27,1.71.27,1.72-1.39,2.18a25.51,25.51,0,0,0-5.43,2.28q-3.31,1.81-6.63,3.58a24.15,24.15,0,0,1-9.94,2.72,40.91,40.91,0,0,0-12.32,2.53,50.52,50.52,0,0,1-12.06,2.81,159.84,159.84,0,0,0-16.83,3,84.58,84.58,0,0,1-12.45,2.09,65.63,65.63,0,0,1-6.72.19c-3.46-.07-6.92-.27-10.39-.42-5.16-.22-10.33-.11-15.49-.16a126.52,126.52,0,0,1-17.07-1.16c-2.22-.32-4.43-.71-6.61-1.21A77.15,77.15,0,0,0,99,139.92c-3.86-.36-7.73-.58-11.58-.92a63.53,63.53,0,0,1-12-2,24,24,0,0,1-2.51-.84c-6.65-2.75-13.4-5.21-20.12-7.8a107.15,107.15,0,0,1-14-6.59c-3.79-2.13-7.55-4.3-11.35-6.41A18.67,18.67,0,0,1,22.13,111a58.75,58.75,0,0,0-7.69-8.14c-3.27-2.66-4.52-6.14-4.53-10.23A19,19,0,0,1,13.26,81.5a25.86,25.86,0,0,1,4.3-4.89A168.4,168.4,0,0,1,36,62.48a62.37,62.37,0,0,1,19.1-7.9c5.14-1.29,10.34-2.29,15.55-3.23,7.95-1.44,15.88-3,23.77-4.7a134.36,134.36,0,0,1,18.29-2.94,82.75,82.75,0,0,1,13.85,0,141.72,141.72,0,0,0,21.79.39A111.86,111.86,0,0,1,161.17,44a90.24,90.24,0,0,1,11.11,1.41c4.68.82,9.35,1.71,14,2.47a57.77,57.77,0,0,0,7.51.6q3.87.11,7.73.44a22.79,22.79,0,0,1,5.95,1.32c1.08.4,2.18.77,3.22,1.27a64.26,64.26,0,0,0,15.54,4.72A64.74,64.74,0,0,1,237.1,59a100,100,0,0,1,15.53,7.57A6.65,6.65,0,0,1,253.25,67.09ZM99.92,112.54c.21.32.56.34.88.45,5.07,1.74,10.24,3.14,15.45,4.39,5.93,1.43,11.93,2.58,17.95,3.57,3.28.54,6.58.95,9.87,1.38,3,.38,5.92.72,8.89,1.07a11.18,11.18,0,0,0,5.19-.53,204.62,204.62,0,0,0,19.86-8.4c4.83-2.32,9.62-4.74,14.31-7.33.52-.29,1.16-.46,1.35-1.15q6.63-4,12.83-8.66A89,89,0,0,0,219,86.24c.34-.37.88-.67.76-1.45-1.57-.8-3.18-1.67-4.83-2.47a235.48,235.48,0,0,0-42.07-15.11c-8.53-2.26-17.16-4.08-25.85-5.6a18.32,18.32,0,0,0-6.27-.47c-1.14.19-2.29.32-3.42.52a133.9,133.9,0,0,0-22.17,6c-.7.25-1.42.44-2.13.66a70.42,70.42,0,0,0-7.62,1.33,197.7,197.7,0,0,0-28.44,7.82,103.26,103.26,0,0,0-17,7.76c-.5.29-1.14.45-1.36,1.08A7.54,7.54,0,0,0,60,88.75a28.09,28.09,0,0,0,3.24,3.39,74.55,74.55,0,0,0,10.32,7.62,207.08,207.08,0,0,0,22.45,12A6.8,6.8,0,0,0,99.92,112.54Z"/><path class="cls-7" d="M410.28,179.38c-4.37-5-9.27-9.55-13.94-14.3a61.9,61.9,0,0,1-9-11.58c-.28-.47-.58-.92-.85-1.39-3.51-6.06-7.26-12-11.15-17.77a105.3,105.3,0,0,1-11.09-21.27,71,71,0,0,0-4.41-8.94q-2.64-4.82-5.28-9.65c-.49-.89-.93-1.81-1.37-2.73a45.45,45.45,0,0,1-3.79-11.36C348.33,74.67,347,69,345.71,63.29a106.78,106.78,0,0,1-2.33-17.35c-.15-2.78-.37-5.56-.63-8.33a20.34,20.34,0,0,1,.71-8.26,63.71,63.71,0,0,0,2.45-10.71,10.4,10.4,0,0,1,4-6.88,18.26,18.26,0,0,1,13.83-4.21,41.76,41.76,0,0,1,8.73,2c3.61,1.18,7.19,2.44,10.79,3.66a61.76,61.76,0,0,1,22.68,14c4.94,4.67,9.57,9.65,14.33,14.5,3.76,3.83,7.58,7.61,11.38,11.39,3.28,3.26,6.53,6.54,9.53,10.06a78.66,78.66,0,0,1,8.28,11.6c1,1.64,1.91,3.29,2.81,5a110.86,110.86,0,0,0,8.34,13c.93,1.26,1.82,2.54,2.76,3.79a82.77,82.77,0,0,1,10.19,18c1.31,3.13,2.68,6.24,4,9.36a62.8,62.8,0,0,0,4.25,8.11c.75,1.22,1.47,2.44,2.23,3.65a30.48,30.48,0,0,1,4.5,11.92,56.83,56.83,0,0,0,3.91,13.45c.33.82.66,1.64,1,2.45a58.4,58.4,0,0,1,4.07,15.1,87.52,87.52,0,0,1,.87,16.67A42.38,42.38,0,0,1,496,207.67a23.86,23.86,0,0,1-3.41,6.46c-1.1.12-1.71-.74-2.43-1.29q-4.69-3.58-9.3-7.26a12.49,12.49,0,0,0-3.15-1.83c-1.82-.74-3.63-1.52-5.45-2.24-13.17-5.22-26.45-10.13-39.91-14.55-5.4-1.78-10.81-3.54-16.3-5.05a26.56,26.56,0,0,0-3.48-1.08A4,4,0,0,1,410.28,179.38ZM382.67,91.94a5.39,5.39,0,0,0,.09,1c.53,1.9,1.05,3.79,1.64,5.67a219.17,219.17,0,0,0,9.23,24.14c2.55,5.71,5.34,11.29,8.22,16.84a10.37,10.37,0,0,0,3.13,3.65q6.14,4.55,12.63,8.59c5.54,3.44,11.16,6.73,16.94,9.74.58.3,1.11.83,1.86.68,5.14,2.3,10.31,4.52,15.65,6.31A87.4,87.4,0,0,0,465.44,172c1.2.2,1.55.09,1.32-1.19-.16-.86-.14-1.76-.25-2.64A194.55,194.55,0,0,0,462.28,146a278.7,278.7,0,0,0-15.2-44,21.24,21.24,0,0,0-4.35-6.56c-.24-.24-.46-.5-.7-.74a122,122,0,0,0-17.52-15.2A4,4,0,0,0,423.38,78a205.13,205.13,0,0,0-20-18.58,118.13,118.13,0,0,0-17.44-12c-1.13-.62-2.28-1.2-3.44-1.77-.56-.28-.87-.16-1.15.4a18.48,18.48,0,0,0-1.67,5.63,72.66,72.66,0,0,0-.67,15.43c.37,7.12,1.13,14.2,2.2,21.26A6.48,6.48,0,0,0,382.67,91.94Z"/><path class="cls-8" d="M94.62,291.14c-1.21-2.19-2.29-4.45-3.69-6.53a11.4,11.4,0,0,0-.47-1.33,90.64,90.64,0,0,1-6.39-17.06c-.07-.26-.16-.51-.25-.77l-.36-2.39a1.69,1.69,0,0,0,.9-.79,51.26,51.26,0,0,1,7.05-8.89A58.22,58.22,0,0,1,98,247.63a63.85,63.85,0,0,1,9.64-6.39,83,83,0,0,1,15.88-6.73A88.08,88.08,0,0,1,143,230.76a2.63,2.63,0,0,0,.8-.12,6.62,6.62,0,0,1,2.42-.26,22.66,22.66,0,0,0,4.07-.1,28.47,28.47,0,0,1,4.86-.29,20.54,20.54,0,0,0,3-.1c2.79-.51,5.62-.74,8.42-1.17,1.34-.2,2.68-.35,4-.49,1.88-.19,3.75-.47,5.62-.71a6.93,6.93,0,0,1-.05,1c-.5,2.59-1.06,5.16-1.53,7.75-1,5.59-2.28,11.12-3.59,16.65-1.65,7-3.47,13.92-5.36,20.83-2.13,7.77-4.46,15.48-6.87,23.16-1.34,4.27-2.81,8.49-4.23,12.73l-1.29,3.84a21.18,21.18,0,0,1-2.44,0c-3.42-.42-6.87-.57-10.29-1.06-3-.43-6-.89-9-1.45a115.68,115.68,0,0,1-12.6-3.12,84.23,84.23,0,0,1-16.84-7A8.17,8.17,0,0,1,99,298C97.61,295.66,96.1,293.41,94.62,291.14Z"/><path class="cls-8" d="M83.27,262.18a23.49,23.49,0,0,1-.82-4.6c-1.81-15.17,1.71-29.08,10-41.84a85.69,85.69,0,0,1,17.94-19.59,92,92,0,0,1,13.09-9c1.42-.8,2.77-1.71,4.2-2.5a69.25,69.25,0,0,1,13-5.34,140.22,140.22,0,0,1,19.78-4.66,11.86,11.86,0,0,1,.66,1.25c2.25,5.73,4.47,11.47,6.73,17.2,3.35,8.5,6.4,17.11,9.23,25.8l0,.42c-.74,0-1.49,0-2.23.14-1.6.2-3.2.46-4.8.68-1.34.18-2.69.28-4,.51-2.79.47-5.57,1-8.36,1.49a21.07,21.07,0,0,1-3.41.43c-2,0-3.9.41-5.86.53-2.48.15-4.93.74-7.39,1.12-3.67.57-7.29,1.42-10.9,2.3s-7.4,2.13-11.06,3.37a94,94,0,0,0-16.62,7.58c-2.41,1.39-4.66,3-6.94,4.6a23.34,23.34,0,0,0-2.8,2.34c-1.86,1.79-3.67,3.63-5.49,5.46a23.61,23.61,0,0,0-2.71,3.54,1.7,1.7,0,0,0-.36.92c.1,2-.58,3.89-.46,5.87C83.63,260.88,83.8,261.6,83.27,262.18Z"/><path class="cls-8" d="M416.07,181.89c5.48,1.52,10.89,3.28,16.3,5.05,13.46,4.42,26.74,9.33,39.91,14.55,1.83.72,3.63,1.5,5.45,2.24a12.49,12.49,0,0,1,3.15,1.83q4.61,3.68,9.3,7.26c.72.55,1.33,1.42,2.43,1.29l.09.79c.45,1.33,1.58,2.19,2.38,3.28,2,2.79,4.13,5.54,6,8.47,1.26,2,2.42,4.08,3.66,6.1A67,67,0,0,1,508,239a57.7,57.7,0,0,1,4.51,12.81,20.85,20.85,0,0,1,.52,6.46.48.48,0,0,1-.75.35,18.64,18.64,0,0,1-1.94-1.48,81.49,81.49,0,0,0-6.56-5.13c-3.53-2.75-7.28-5.2-11.05-7.6-3-1.92-6.08-3.83-9.29-5.47-1.75-.89-3.44-1.91-5.21-2.76A128.76,128.76,0,0,0,460.18,229a107.82,107.82,0,0,0-12.41-3,15.57,15.57,0,0,0-4.22-.53c-2.15-.75-4.48,0-6.64-.76a1.28,1.28,0,0,0-.41,0,42.18,42.18,0,0,1-7.45-.81,6,6,0,0,0-.81,0h-.39a5.14,5.14,0,0,0-.26-1.8c-1.27-4.42-2.48-8.85-3.76-13.27-2.19-7.6-4.42-15.2-6.63-22.79C416.82,184.62,416.45,183.25,416.07,181.89Z"/><path class="cls-8" d="M243.46,164.39c4.51-.51,9-.82,13.56-1,5.14-.19,10.28-.33,15.42-.19l10.55.32a6.73,6.73,0,0,1,.44.68l10.71,21.89.09.18q3.13,6.82,6.26,13.65c1.46,3.2,3,6.38,4.32,9.62a23.51,23.51,0,0,1,1.91,4.9l-11.81,0a3.77,3.77,0,0,1-1.21-.08,9.4,9.4,0,0,0-3.22-.29H257.7c-2.24,0-4.48,0-6.72.06-.18-.79-.39-1.57-.54-2.37q-1-4.86-1.92-9.72c-.44-2.25-.91-4.5-1.32-6.75-.62-3.45-1.2-6.91-1.8-10.36-.51-3-1-6-1.51-9-.32-2-.6-4-.9-6l-.78-5.2C242.63,164.65,243.11,164.75,243.46,164.39Z"/><path class="cls-8" d="M184,171.51c1.81-.19,3.63-.44,5.44-.57,4.59-.33,9.18-.65,13.78-.9,5.41-.3,10.82-.52,16.23-.48a5.74,5.74,0,0,0,2-.41l.44.05a9,9,0,0,0,.33,1c2.35,5,4.57,10,6.68,15.06,1.56,3.75,3.16,7.49,4.53,11.33,1.1,3.06,2.32,6.08,3.42,9.14.87,2.42,1.65,4.88,2.44,7.33a8.65,8.65,0,0,1,.22,1.4,22.35,22.35,0,0,0-3.65.17,18.07,18.07,0,0,1-3.43.28l-4.89,0a4.84,4.84,0,0,0-1.42.07,13.06,13.06,0,0,1-3.84.32,18.74,18.74,0,0,0-3.45.11,18.84,18.84,0,0,1-4,.3c-2.64,0-5.25.64-7.9.45a1.22,1.22,0,0,0-.4,0c-2.24.61-4.6.11-6.84.73-2.11-.17-4.16.61-6.27.44a19.21,19.21,0,0,1-5.25.41,4.06,4.06,0,0,1-.45-1.75c-.19-1.81-.46-3.62-.68-5.43-.18-1.48-.44-3-.5-4.43-.07-1.77-.39-3.5-.56-5.25a39.44,39.44,0,0,0-.39-4.24c-.41-1.93-.35-3.91-.63-5.85s-.19-3.64-.41-5.47c-.26-2.21-.18-4.46-.4-6.69S184,173.89,184,171.51Z"/><path class="cls-8" d="M306,165.24c4.38.46,8.77.89,13.15,1.39,3.37.38,6.74.81,10.1,1.27,3.76.51,7.52,1.08,11.28,1.62.27,0,.54,0,.81,0l.67.43a12.6,12.6,0,0,0,.53,1.31c1.22,2.26,2.53,4.48,3.68,6.78,2.94,5.87,6,11.7,8.72,17.66,2.48,5.34,4.81,10.73,7,16.21a27.72,27.72,0,0,1,2,5.74c-1,.19-2-.36-3-.37a39.11,39.11,0,0,1-5.25-.33c-2.26-.31-4.58-.1-6.87-.43-2.06-.3-4.17-.11-6.26-.38-2.53-.33-5.12,0-7.69-.44a31,31,0,0,0-4.47-.06,4.56,4.56,0,0,1-1.22,0c-1.86-.55-3.77-.31-5.66-.35a20.93,20.93,0,0,1-5.24-.41h-.41a12.25,12.25,0,0,0-.61-3.79c-1.21-5.19-2.52-10.37-3.8-15.54-2.18-8.78-4.4-17.56-6.55-26.35A15.11,15.11,0,0,1,306,165.24Z"/><path class="cls-8" d="M362.31,170.46c1.81.23,3.62.47,5.43.69a207.91,207.91,0,0,1,20.55,3.6,32.41,32.41,0,0,1,5.27,1.32c2,2.91,4,5.8,6,8.72a134.1,134.1,0,0,1,7.79,13.58,184.68,184.68,0,0,1,7.8,17.66,39.54,39.54,0,0,1,2.19,6.54,2.33,2.33,0,0,1-.81,0c-1.69-.6-3.53-.11-5.21-.74-1.91.15-3.75-.59-5.66-.46a2.44,2.44,0,0,1-1-.08,8.08,8.08,0,0,0-2.82-.32,8,8,0,0,1-1.22-.07c-2.33-.42-4.69-.52-7-.75a42.72,42.72,0,0,0-5.46-.44,1,1,0,0,1-.4-.08,5.91,5.91,0,0,0-2.41-.27c-2.31,0-4.57-.63-6.88-.45a.94.94,0,0,1-.4-.07,6.45,6.45,0,0,0-3-.23c-.13-.6-.23-1.2-.39-1.79-1.48-5.42-3-10.84-4.47-16.27s-3-11.12-4.47-16.69c-1.16-4.39-2.28-8.78-3.42-13.18A.61.61,0,0,0,362.31,170.46Z"/><path class="cls-9" d="M306,165.24a15.11,15.11,0,0,0,.83,3.94c2.15,8.79,4.36,17.57,6.55,26.35,1.29,5.18,2.59,10.35,3.8,15.54a12.24,12.24,0,0,1,.61,3.79H307.14l-.42-.41a23.51,23.51,0,0,0-1.91-4.9c-1.36-3.24-2.86-6.42-4.32-9.62q-3.12-6.83-6.26-13.65l-.09-.18-10.71-21.89a6.73,6.73,0,0,0-.44-.68.79.79,0,0,1,.83-.45c2.17.07,4.35.13,6.52.22,1.08,0,2.17.17,3.25.22,3.59.17,7.19.35,10.79.46a1.36,1.36,0,0,1,1.34,1A1.4,1.4,0,0,0,306,165.24Z"/><path class="cls-9" d="M184,171.51c0,2.38-.19,4.77,0,7.13s.14,4.48.4,6.69c.22,1.83.14,3.67.41,5.47s.22,3.92.63,5.85a39.44,39.44,0,0,1,.39,4.24c.17,1.75.49,3.48.56,5.25.06,1.48.32,3,.5,4.43.23,1.81.49,3.62.68,5.43a4.06,4.06,0,0,0,.44,1.75,1.74,1.74,0,0,1-.14.37,28.28,28.28,0,0,0-6.24.54,42.16,42.16,0,0,1-4.63.28c-2.83-8.69-5.87-17.3-9.23-25.8-2.26-5.73-4.48-11.47-6.73-17.2a11.86,11.86,0,0,0-.66-1.25,1,1,0,0,1,.92-.9q7.94-1,15.87-2.12c1.41-.19,2.8-.44,4.21-.64a14.66,14.66,0,0,1,1.82-.13C183.62,170.9,183.83,171.2,184,171.51Z"/><path class="cls-4" d="M83.27,262.18c.53-.58.36-1.3.33-1.95-.12-2,.56-3.89.46-5.87a1.7,1.7,0,0,1,.36-.92,23.61,23.61,0,0,1,2.71-3.54c1.82-1.83,3.63-3.67,5.49-5.46a23.34,23.34,0,0,1,2.8-2.34c2.28-1.59,4.53-3.21,6.94-4.6A94,94,0,0,1,119,229.92c3.65-1.24,7.31-2.46,11.06-3.37s7.22-1.72,10.9-2.3c2.47-.38,4.92-1,7.39-1.12,2-.12,3.89-.52,5.86-.53a21.07,21.07,0,0,0,3.41-.43c2.79-.48,5.57-1,8.36-1.49,1.33-.22,2.68-.33,4-.51,1.6-.22,3.2-.48,4.8-.68.74-.09,1.49-.09,2.23-.14a2.84,2.84,0,0,1,.28,2.49c-.31,1.91-.67,3.8-1,5.71l-.08,0c-1.87.24-3.74.51-5.62.71-1.34.14-2.68.29-4,.49-2.8.42-5.63.66-8.42,1.17a20.54,20.54,0,0,1-3,.1,28.47,28.47,0,0,0-4.86.29,22.66,22.66,0,0,1-4.07.1,6.62,6.62,0,0,0-2.42.26,2.63,2.63,0,0,1-.8.12,88.08,88.08,0,0,0-19.46,3.75,83,83,0,0,0-15.88,6.73A63.85,63.85,0,0,0,98,247.63a58.22,58.22,0,0,0-6.55,5.77,51.26,51.26,0,0,0-7.05,8.89,1.69,1.69,0,0,1-.9.79A1,1,0,0,1,83.27,262.18Z"/><path class="cls-10" d="M417.3,222.56a39.57,39.57,0,0,0-2.19-6.54,184.68,184.68,0,0,0-7.8-17.66,134.1,134.1,0,0,0-7.79-13.58c-2-2.92-4-5.81-6-8.72a57.29,57.29,0,0,1,6.69,1.48c3,.67,6,1.42,9,2.12.37.09.8.29,1-.28a4,4,0,0,0,2.31,1.42,26.55,26.55,0,0,1,3.48,1.08c.38,1.37.75,2.73,1.14,4.09,2.21,7.6,4.43,15.19,6.63,22.79,1.27,4.42,2.49,8.85,3.76,13.27a5.14,5.14,0,0,1,.26,1.8c-.89.14-1.7-.41-2.55-.38-1.75.07-3.41-.63-5.16-.47a2.42,2.42,0,0,1-1-.22,4.23,4.23,0,0,0-1.59-.13Z"/><path class="cls-6" d="M221.85,169.2l-.44-.05c.16-.8-.58-1.36-.56-2.19a18.1,18.1,0,0,1,4.3-.92c5.14-1,10.3-1.82,15.44-2.74.74-.13,1.3-.21,1.61.68.2.58.84.25,1.26.41-.34.37-.83.27-1.25.37a5.43,5.43,0,0,0-2,0c-1.39.22-2.78.49-4.18.7a81.58,81.58,0,0,0-12.75,3C222.77,168.65,222.19,168.69,221.85,169.2Z"/><path class="cls-6" d="M342,170l-.67-.43c0-.42.07-.83.62-.86s.81,0,1.22,0l17.29.16c.14,0,.27,0,.41,0a1,1,0,0,1,1.19.84c.07.26.17.51.25.77a.56.56,0,0,1-.08.24,2.17,2.17,0,0,0-.57-.21c-2.37-.17-4.73-.34-7.1-.46-1.36-.07-2.72,0-4.08,0a20,20,0,0,0-4.26.25c-1.35.32-2.66-.55-4-.29Z"/><path class="cls-9" d="M531,267.49a4.55,4.55,0,0,1-2.42-1.09,3.54,3.54,0,0,1,2.41.49Z"/><path class="cls-2" d="M94.62,291.14c1.48,2.27,3,4.52,4.41,6.82a8.17,8.17,0,0,0,3.08,2.85,84.23,84.23,0,0,0,16.84,7,115.68,115.68,0,0,0,12.6,3.12c3,.56,6,1,9,1.45,3.42.49,6.87.64,10.29,1.06a21.23,21.23,0,0,0,2.44,0l3.84.09a6.1,6.1,0,0,1,1.61.11,9.33,9.33,0,0,0,2.81.26h4.65a4.7,4.7,0,0,0,1.41-.08,10.35,10.35,0,0,1,3.21-.29l5.26,0a1.87,1.87,0,0,0,1.35-.28,7,7,0,0,1,3.38.41A127.36,127.36,0,0,0,196.57,319a137.38,137.38,0,0,0,16.25,3.56c2.28.34,4.56.63,6.84.93a29.27,29.27,0,0,0,5.47.23c.4.51,1,.39,1.5.39,2.64,0,5.28-.07,7.91.05a38.51,38.51,0,0,0,6.64-.52c3-.38,5.95-1.08,8.92-1.65,1.5-.41,3-.77,4.5-1.24a4.39,4.39,0,0,1,2-.17,56.67,56.67,0,0,0,7.48.69c6.17.07,12.33.2,18.5-.33,3.11-.27,6.2-.65,9.28-1a12.56,12.56,0,0,0,3.78-.73,6.53,6.53,0,0,0,1.21,0c2.64-.53,5.29-1,7.9-1.67,4.64-1.16,9.25-2.47,13.78-4a2.19,2.19,0,0,0,1.21-.69,5.23,5.23,0,0,0,2.15-.55,74.62,74.62,0,0,1,10.76-2.85c4.45-.87,9-1.3,13.44-1.93,3.28-.47,6.54-1,9.77-1.72a3.36,3.36,0,0,0,1.85-.75,8.93,8.93,0,0,0,3.34-.69,61,61,0,0,0,13.55-6.24l6-3.76a66,66,0,0,0,7.88.4c1.62-.09,3.23-.18,4.85-.31,1.95-.16,3.91-.26,5.84-.56,2.86-.44,5.72-1,8.55-1.59a21.34,21.34,0,0,0,5.42-1.57,3,3,0,0,0,.8,0c2.74-.92,5.48-1.83,8.2-2.8,3.41-1.22,6.61-3,10.11-4,.2,0,.41,0,.6-.09,4.14-1,8.28-2,12.41-3.05a44.83,44.83,0,0,0,5.88-1.56,4.64,4.64,0,0,1,2.57,1.07c6.56,3.9,13.2,7.64,20,11.17.36.19.7.4,1.05.61a16,16,0,0,0-2.14,4.58,4.5,4.5,0,0,0-.27,1.59c.19,1.51-.4,2.94-.44,4.43a2.16,2.16,0,0,1-.22.77,11.21,11.21,0,0,1-3.37,4.52,17,17,0,0,1-3.6,2.27c-4,1.71-6.92,4.69-9.43,8.13-1.71,2.35-3.34,4.76-5,7.14a6.35,6.35,0,0,1-.49.64A44.59,44.59,0,0,1,438,335.44a54.7,54.7,0,0,1-13.61,5.2c-1.12.26-2.27.38-3.39.58a10.36,10.36,0,0,1-3.18-.45,30.57,30.57,0,0,0-5.82-.69c-.81,0-1.63,0-2.45,0a50.39,50.39,0,0,0-15.48,2.79,31.86,31.86,0,0,0-8.33,4.18c-1,.77-2,1.67-3,2.47a54.9,54.9,0,0,1-12.17,7.31A47.09,47.09,0,0,1,358,360.56a36.4,36.4,0,0,1-4.64.33c-2.65,0-5.3,0-8,0a35.44,35.44,0,0,0-11,1.69,43,43,0,0,1-7.31,1.61c-.67.08-1.32.27-2,.39a65.37,65.37,0,0,1-8.25.88c-1.82.09-3.6,0-5.41,0a22,22,0,0,1-5.78-1,21.28,21.28,0,0,0-7.18-1.14c-1,.05-2,0-3.06,0a27.86,27.86,0,0,0-7.58,1.17,95.32,95.32,0,0,0-9.74,3.49,71.52,71.52,0,0,1-11.39,3.68,19.3,19.3,0,0,1-3.79.64,22.52,22.52,0,0,1-7.28-1.64,30.26,30.26,0,0,0-8-2.06,4,4,0,0,1-1-.21,3.75,3.75,0,0,0-2.21-.1,12,12,0,0,1-3.63.33,20,20,0,0,0-3.4.5,22.76,22.76,0,0,0-4,.6,4,4,0,0,1-1.21.12c-.88,0-1.74.19-2.61.29a18.54,18.54,0,0,1-5.07,0c-1.19-.2-2.41-.24-3.6-.51-3.43-.77-6.81-1.74-10.18-2.74a111.35,111.35,0,0,0-11-2.69,48.66,48.66,0,0,0-9.93-.47c-1.81.72-3.79.07-5.61.74a3.21,3.21,0,0,1-1,.06,26.35,26.35,0,0,0-3.43.29,12.25,12.25,0,0,1-4.85-.11c-1.18-.3-2.4-.28-3.6-.54-1.72-.38-3.43-.76-5.11-1.29a58.64,58.64,0,0,0-8.62-2.28,29.44,29.44,0,0,0-5.23-.59c-2.92.08-5.84,0-8.77,0a22.88,22.88,0,0,1-6.41-.83,12,12,0,0,1-6.31-3.47c-.93-1.07-1.86-2.14-2.72-3.28a16.47,16.47,0,0,0-7.49-6c-2.1-.77-4.22-1.48-6.32-2.23a19.6,19.6,0,0,1-6.88-4.21,13.88,13.88,0,0,1-3.85-6.81,34.18,34.18,0,0,0-1.42-5.06,47.5,47.5,0,0,0-3.05-5.73,21.22,21.22,0,0,1-2.79-7.37,11,11,0,0,1,.7-6.38c.35-.81.68-1.63,1-2.45.19-.49,0-.79-.54-.8a11.13,11.13,0,0,1-2.19-.39A2.75,2.75,0,0,1,93,302.12,21.6,21.6,0,0,1,93.3,296a23.28,23.28,0,0,0,.5-3.6A1.43,1.43,0,0,1,94.62,291.14Z"/><path class="cls-8" d="M451.14,279.2a44.83,44.83,0,0,1-5.88,1.56c-4.13,1-8.27,2-12.41,3.05a6,6,0,0,1-.6.09c.24-5.43.1-10.86.05-16.3a2.72,2.72,0,0,0,0-.61c-.66-2.72-.29-5.53-.66-8.29a37.84,37.84,0,0,1-.55-7.08,3.81,3.81,0,0,0-.09-.6c-.22-2-.47-4-.66-6s-.26-3.92-.51-5.86a79.16,79.16,0,0,1-.8-8.68c1.2.17,2.42.26,3.59.54a10.25,10.25,0,0,0,2.42.23c2.24,0,4.48,0,6.73,0a47.42,47.42,0,0,1,8.27.75,78.87,78.87,0,0,1,13.36,3.34A90.45,90.45,0,0,1,475,240.07c3.15,1.59,6.35,3.09,9.36,4.93,4.51,2.75,9,5.6,13.19,8.79,2.16,1.63,4.32,3.26,6.46,4.92.8.62,1.54,1.33,2.3,2a.62.62,0,0,1-.16,1,12.65,12.65,0,0,1-1.46.73c-5.41,2.17-10.89,4.15-16.46,5.86-3.68,1.13-7.4,2.12-11.18,2.88-3,.62-6,1.47-9,2.29q-5.39,1.46-10.74,3c-1.76.51-3.48,1.12-5.21,1.72C451.61,278.4,451.16,278.61,451.14,279.2Z"/><path class="cls-10" d="M429,230.42a79.16,79.16,0,0,0,.8,8.68c.25,1.94.32,3.91.51,5.86s.44,4,.66,6a3.81,3.81,0,0,1,.09.6,37.84,37.84,0,0,0,.55,7.08c.37,2.76,0,5.57.66,8.29a2.72,2.72,0,0,1,0,.61c0,5.43.19,10.86-.05,16.3-3.5,1-6.7,2.76-10.11,4-2.72,1-5.46,1.88-8.2,2.8a3,3,0,0,1-.8,0,9.06,9.06,0,0,1,.07-1c.51-2.86,1.16-5.69,1.51-8.57.32-2.61.76-5.21,1-7.84.24-3,.73-5.9.78-8.88a.85.85,0,0,1,0-.2c.67-2.51.25-5.11.67-7.67a63.78,63.78,0,0,0,.39-6.47c.27-4.39.11-8.79.44-13.19.2-2.7.08-5.42.1-8.13,1.77-.19,3.46.35,5.18.58a26.78,26.78,0,0,0,5.37.64Z"/><path class="cls-11" d="M428.64,230a26.78,26.78,0,0,1-5.37-.64c-1.72-.23-3.41-.77-5.18-.58l-.09-.46a15.39,15.39,0,0,0-.4-5.64,4.23,4.23,0,0,1,1.59.13,2.42,2.42,0,0,0,1,.22c1.75-.17,3.42.53,5.16.47.85,0,1.66.52,2.55.38h.39a16,16,0,0,0,.26,3.55A16.53,16.53,0,0,1,428.64,230Z"/><path class="cls-8" d="M527.94,266.12c-.06,0-.12.07-.17.06s-.2-.14,0-.23a.21.21,0,0,1,.18,0S527.93,266.07,527.94,266.12Z"/><path class="cls-12" d="M113,68.32c.71-.22,1.43-.41,2.13-.66a133.9,133.9,0,0,1,22.17-6c1.14-.2,2.29-.33,3.42-.52a18.32,18.32,0,0,1,6.27.47c8.69,1.52,17.32,3.34,25.85,5.6A235.48,235.48,0,0,1,214.9,82.33c1.65.79,3.26,1.66,4.83,2.47.12.78-.42,1.07-.76,1.45a89,89,0,0,1-12.48,11.09Q200.3,102,193.66,106a8.32,8.32,0,0,1-1.13-.42c-1.07-.58-2.12-1.21-3.19-1.79a90.46,90.46,0,0,0-20.62-8A83.86,83.86,0,0,0,158,93.62c-1.06-.12-2.14-.28-3.21-.43-2-.27-4-.52-6-.66-1.62-.11-3.26,0-4.89-.08a10.27,10.27,0,0,0-4.35.84,59.5,59.5,0,0,1-6.64,2.54c-.21-.17-.42-.33-.61-.52a117.72,117.72,0,0,1-12.59-14.8,40.27,40.27,0,0,1-6.05-11.18A1.73,1.73,0,0,0,113,68.32Z"/><path class="cls-13" d="M113,68.32a1.73,1.73,0,0,1,.64,1,40.27,40.27,0,0,0,6.05,11.18,117.72,117.72,0,0,0,12.59,14.8c.19.19.41.35.61.52-.21.49-.68.61-1.11.8-3.34,1.51-6.69,3-10,4.57-6.86,3.28-13.61,6.76-20.31,10.35-.53.29-1,.65-1.54,1a6.8,6.8,0,0,1-3.91-.8,207.08,207.08,0,0,1-22.45-12,74.55,74.55,0,0,1-10.32-7.62A28.09,28.09,0,0,1,60,88.75a7.54,7.54,0,0,1-1.48-2.45c.22-.64.87-.79,1.36-1.08a103.26,103.26,0,0,1,17-7.76,197.7,197.7,0,0,1,28.44-7.82A70.42,70.42,0,0,1,113,68.32Z"/><path class="cls-14" d="M99.92,112.54c.51-.33,1-.7,1.54-1,6.7-3.59,13.45-7.07,20.31-10.35,3.3-1.58,6.65-3.06,10-4.57.44-.2.9-.32,1.11-.8a59.43,59.43,0,0,0,6.63-2.54,10.27,10.27,0,0,1,4.35-.84c1.63.07,3.26,0,4.89.08,2,.14,4,.39,6,.66,1.07.14,2.15.3,3.21.43a83.86,83.86,0,0,1,10.72,2.2,90.46,90.46,0,0,1,20.62,8c1.08.57,2.12,1.21,3.19,1.79a8.32,8.32,0,0,0,1.13.42c-.19.69-.83.86-1.35,1.15-4.69,2.59-9.47,5-14.31,7.33a204.62,204.62,0,0,1-19.86,8.4,11.18,11.18,0,0,1-5.19.53c-3-.35-5.93-.68-8.89-1.07-3.29-.43-6.59-.84-9.87-1.38-6-1-12-2.15-17.95-3.57-5.21-1.25-10.38-2.65-15.45-4.39C100.49,112.88,100.13,112.86,99.92,112.54Z"/><path class="cls-12" d="M424.51,79.45A122,122,0,0,1,442,94.65c.23.25.46.5.7.74a21.24,21.24,0,0,1,4.35,6.56,278.7,278.7,0,0,1,15.2,44,194.55,194.55,0,0,1,4.23,22.19c.11.88.09,1.77.25,2.64.24,1.29-.12,1.39-1.32,1.19a87.4,87.4,0,0,1-13.39-3.43c-5.35-1.79-10.51-4-15.65-6.31a34.69,34.69,0,0,0-.35-3.63,49.26,49.26,0,0,0-.88-7.64,82.14,82.14,0,0,0-2.72-11c-1.29-3.93-2.72-7.79-4.37-11.59a97.11,97.11,0,0,0-6.71-12.53,6.9,6.9,0,0,0-1.95-2c-1.78-1.24-3.55-2.48-5.35-3.7a3.49,3.49,0,0,1-1.05-.94c.07-.54.1-1.09.22-1.61a130.54,130.54,0,0,1,4.8-16.39A38.71,38.71,0,0,1,424.51,79.45Z"/><path class="cls-13" d="M424.51,79.45a38.71,38.71,0,0,0-6.45,11.71,130.54,130.54,0,0,0-4.8,16.39,16.14,16.14,0,0,0-.22,1.61,2,2,0,0,1-1.3-.5c-.75-.47-1.47-1-2.22-1.44-8.22-5.16-16.65-10-25.17-14.59a16.14,16.14,0,0,0-1.68-.69,6.48,6.48,0,0,1-1.41-3.5c-1.06-7.05-1.83-14.13-2.2-21.26a72.66,72.66,0,0,1,.67-15.43,18.48,18.48,0,0,1,1.67-5.63c.29-.56.59-.67,1.15-.4,1.16.57,2.31,1.15,3.44,1.77a118.13,118.13,0,0,1,17.44,12,205.13,205.13,0,0,1,20,18.58A4,4,0,0,1,424.51,79.45Z"/><path class="cls-14" d="M382.67,91.94a16.14,16.14,0,0,1,1.68.69c8.52,4.64,17,9.43,25.17,14.59.75.47,1.47,1,2.22,1.44a2,2,0,0,0,1.3.5,3.47,3.47,0,0,0,1,.94c1.79,1.22,3.57,2.45,5.35,3.7a6.9,6.9,0,0,1,1.95,2,97.11,97.11,0,0,1,6.71,12.53c1.65,3.8,3.08,7.66,4.37,11.59a82.14,82.14,0,0,1,2.72,11,49.26,49.26,0,0,1,.88,7.64,34.69,34.69,0,0,1,.35,3.63c-.76.15-1.28-.37-1.86-.68-5.78-3-11.41-6.3-16.94-9.74q-6.49-4-12.63-8.59a10.37,10.37,0,0,1-3.13-3.65c-2.87-5.55-5.67-11.13-8.22-16.84a219.17,219.17,0,0,1-9.23-24.14c-.58-1.88-1.11-3.78-1.64-5.67A5.39,5.39,0,0,1,382.67,91.94Z"/><path class="cls-10" d="M177.42,313.28a1.87,1.87,0,0,1-1.35.28l-5.26,0a10.35,10.35,0,0,0-3.21.29,4.7,4.7,0,0,1-1.41.08h-4.65a9.33,9.33,0,0,1-2.81-.26,6.1,6.1,0,0,0-1.61-.11l-3.84-.09,1.29-3.84c1.41-4.24,2.89-8.46,4.23-12.73,2.41-7.68,4.74-15.39,6.87-23.16,1.89-6.92,3.7-13.86,5.36-20.83,1.31-5.52,2.56-11.06,3.59-16.65.48-2.59,1-5.17,1.53-7.75a6.93,6.93,0,0,0,.05-1l.08,0c1.48-.13,2.91-.64,4.42-.47a.79.79,0,0,0,.4-.06,6.12,6.12,0,0,1,2.6-.33,3,3,0,0,0,1-.07,7.58,7.58,0,0,1,3.21-.29l.1,0c-.62,2.3-.44,4.7-.79,7-.29,1.93-.19,3.93-.54,5.85-.38,2.07-.38,4.17-.62,6.25a39.76,39.76,0,0,0-.55,6.46,5.11,5.11,0,0,1-.13.8c-.21,1.81-.51,3.62-.6,5.43s-.4,3.9-.58,5.85c-.12,1.34-.2,2.69-.39,4-.25,1.8-.56,3.61-.67,5.42s-.39,3.5-.58,5.24c-.14,1.27-.21,2.56-.43,3.82-.28,1.59-.45,3.21-.65,4.81s-.3,3.09-.51,4.63c-.34,2.47-.79,4.93-1.09,7.41-.38,3.09-.9,6.14-1.54,9.18C178,310.1,177.73,311.69,177.42,313.28Z"/><path class="cls-11" d="M187.93,226.33a7.58,7.58,0,0,0-3.21.29,3,3,0,0,1-1,.07,6.12,6.12,0,0,0-2.6.33.79.79,0,0,1-.4.06c-1.51-.16-2.95.34-4.42.47.34-1.9.71-3.8,1-5.71a2.84,2.84,0,0,0-.28-2.49l0-.42a42.18,42.18,0,0,0,4.63-.28,28.28,28.28,0,0,1,6.24-.54c.13.8.29,1.59.39,2.39a3.82,3.82,0,0,1,0,1.4A31.42,31.42,0,0,0,187.93,226.33Z"/><path class="cls-10" d="M221.85,169.2c.34-.5.93-.54,1.42-.7a81.58,81.58,0,0,1,12.75-3c1.4-.2,2.78-.47,4.18-.7a5.43,5.43,0,0,1,2,0L243,170c.3,2,.58,4,.9,6,.49,3,1,6,1.51,9,.59,3.45,1.17,6.91,1.8,10.36.41,2.26.87,4.5,1.32,6.75q1,4.86,1.92,9.72c.16.79.36,1.58.54,2.37a3.31,3.31,0,0,0-.12.35l-11.09,0-.3-.08a8.65,8.65,0,0,0-.22-1.4c-.79-2.45-1.57-4.91-2.44-7.33-1.1-3.06-2.33-6.08-3.42-9.14-1.37-3.83-3-7.57-4.53-11.33-2.11-5.07-4.32-10.1-6.68-15.06A9,9,0,0,1,221.85,169.2Z"/><path class="cls-4" d="M250.86,214.47a3.29,3.29,0,0,1,.12-.35c2.24,0,4.48-.06,6.72-.06h32.78a9.4,9.4,0,0,1,3.22.29,3.77,3.77,0,0,0,1.21.08l11.81,0,.42.41a43.28,43.28,0,0,1-.4,5.31l-17.69,0a7.69,7.69,0,0,0-2,.12,9.6,9.6,0,0,1-2.62.25l-13.83,0a6.32,6.32,0,0,0-1.82.1,10.1,10.1,0,0,1-3,.28L259,221a5.38,5.38,0,0,0-1.42.05,19,19,0,0,1-5.45.3l-.08,0A20.67,20.67,0,0,0,250.86,214.47Z"/><path class="cls-4" d="M239.47,214.42l.3.08c.11.46.2.92.33,1.38a18.34,18.34,0,0,1,1.07,6,2.4,2.4,0,0,0-.19.35l-5.5,0a6.41,6.41,0,0,0-1.82.11,9.09,9.09,0,0,1-3,.28c-2.78-.06-5.52.65-8.31.45a17.23,17.23,0,0,1-4.85.39,3.19,3.19,0,0,0-1,.11,6.6,6.6,0,0,1-2.41.28c-2.44,0-4.84.63-7.29.45a1.39,1.39,0,0,0-.6.11,6.05,6.05,0,0,1-2.21.26,7.2,7.2,0,0,0-1.83.07c-2,.6-4.17.35-6.24.67-2.59.4-5.24.51-7.84.89l-.1,0a31.35,31.35,0,0,1,.41-4.42,3.82,3.82,0,0,0,0-1.4c-.1-.8-.26-1.59-.39-2.39a1.76,1.76,0,0,0,.14-.37,19.21,19.21,0,0,0,5.25-.41c2.11.17,4.16-.6,6.27-.44,2.24-.62,4.6-.12,6.84-.73a1.22,1.22,0,0,1,.4,0c2.65.19,5.26-.45,7.9-.45a18.84,18.84,0,0,0,4-.3,18.74,18.74,0,0,1,3.45-.11,13.06,13.06,0,0,0,3.84-.32,4.84,4.84,0,0,1,1.42-.07l4.89,0a18.07,18.07,0,0,0,3.43-.28A22.35,22.35,0,0,1,239.47,214.42Z"/><path class="cls-10" d="M342,170l.2,0c1.37-.27,2.68.61,4,.29a20,20,0,0,1,4.26-.25c1.36,0,2.72,0,4.08,0,2.37.11,4.73.29,7.1.46a2.17,2.17,0,0,1,.57.21c1.14,4.39,2.26,8.79,3.42,13.18q2.21,8.35,4.47,16.69c1.47,5.43,3,10.84,4.47,16.27.16.59.26,1.19.39,1.79l-.11,0c-2.2,0-4.35-.66-6.57-.46a.87.87,0,0,1-.4-.05,9,9,0,0,0-3.77-.29,1,1,0,0,1-.28-.08,27.72,27.72,0,0,0-2-5.74c-2.15-5.47-4.49-10.87-7-16.21-2.76-6-5.78-11.79-8.72-17.66-1.15-2.3-2.46-4.51-3.68-6.78A12.6,12.6,0,0,1,342,170Z"/><path class="cls-4" d="M363.86,217.69a1,1,0,0,0,.28.08l.15,4.88-.09,0c-1.1.15-2.11-.46-3.22-.4s-2.31,0-3.47,0a1.78,1.78,0,0,1-.61-.06,9.77,9.77,0,0,0-3.43-.32,16.34,16.34,0,0,1-3.25-.09,24,24,0,0,0-4.86-.32,19.23,19.23,0,0,1-3.45-.11,19.3,19.3,0,0,0-3.84-.29c-1.7,0-3.4,0-5.1,0a6,6,0,0,1-1.61-.15,7.78,7.78,0,0,0-2.22-.22l-10.81-.05a23.87,23.87,0,0,1-.15-5.67,20.93,20.93,0,0,0,5.24.41c1.89,0,3.79-.19,5.66.35a4.56,4.56,0,0,0,1.22,0,31,31,0,0,1,4.47.06c2.56.4,5.15.11,7.69.44,2.1.27,4.21.09,6.26.38,2.3.33,4.61.12,6.87.43a39.11,39.11,0,0,0,5.25.33C361.88,217.32,362.82,217.88,363.86,217.69Z"/><path class="cls-11" d="M318.19,214.87a23.87,23.87,0,0,0,.15,5.67l-.22,0a11.62,11.62,0,0,1-3.77-.33,4.28,4.28,0,0,0-1.39-.07h-6a.41.41,0,0,0-.2,0,43.31,43.31,0,0,0,.4-5.3h11.05Z"/><path class="cls-4" d="M417.6,222.65a15.4,15.4,0,0,1,.4,5.64c-1.85.25-3.63-.32-5.42-.55-.93-.12-1.88-.16-2.81-.32-1.59-.28-3.19-.49-4.79-.71-1.4-.19-2.83-.24-4.21-.56a36.79,36.79,0,0,0-4.61-.57,30,30,0,0,0-5.44-.53,3.14,3.14,0,0,1-.6-.1c-1.8-.23-3.6-.57-5.41-.64-2.1-.08-4.15-.67-6.26-.48a1.32,1.32,0,0,1-.59-.12,6,6,0,0,0-2.21-.25l-.08,0a45.6,45.6,0,0,0-.7-4.9l.11,0a6.46,6.46,0,0,1,3,.23.94.94,0,0,0,.4.07c2.32-.17,4.58.47,6.88.45a5.91,5.91,0,0,1,2.41.27,1,1,0,0,0,.4.08,42.72,42.72,0,0,1,5.46.44c2.35.23,4.71.33,7,.75a8,8,0,0,0,1.22.07,8.08,8.08,0,0,1,2.82.32,2.44,2.44,0,0,0,1,.08c1.91-.13,3.75.61,5.66.46,1.68.63,3.52.13,5.21.74a2.33,2.33,0,0,0,.81,0Z"/><path class="cls-8" d="M252.16,221.35a19,19,0,0,0,5.45-.3A5.38,5.38,0,0,1,259,221l6.71,0a10.1,10.1,0,0,0,3-.28,6.32,6.32,0,0,1,1.82-.1l13.83,0a9.6,9.6,0,0,0,2.62-.25,7.69,7.69,0,0,1,2-.12l17.69,0a.4.4,0,0,1,.2,0,4.58,4.58,0,0,0-.21,1.81c-.1,2.57-.13,5.14-.32,7.71-.2,2.76-.54,5.53-.51,8.31,0,2.51-.59,5-.47,7.5a2.75,2.75,0,0,1-.05.4c-.23,2.22-.49,4.43-.69,6.65s-.33,4.32-.49,6.48c0,.13-.05.27-.07.4-.23,1.81-.48,3.62-.67,5.43s-.19,3.53-.53,5.24c-.24,1.21-.23,2.42-.41,3.63-.27,1.8-.48,3.61-.71,5.42-.18,1.41-.31,2.82-.5,4.23-.37,2.68-.77,5.35-1.15,8-.16,1.14-.3,2.28-.48,3.41q-.75,4.6-1.52,9.2c-.5,3-1,6-1.53,9-.34,2.07-.66,4.14-1,6.21a12.56,12.56,0,0,1-3.78.73c-3.09.38-6.18.76-9.28,1-6.16.53-12.33.4-18.5.33a56.67,56.67,0,0,1-7.48-.69,4.39,4.39,0,0,0-2,.17c-1.48.46-3,.83-4.5,1.24a4.18,4.18,0,0,1,.06-1.41c.24-1.4.51-2.8.61-4.21.14-1.82.29-3.65.36-5.47.13-3.52.38-7,.48-10.56.08-2.92.05-5.84.08-8.76a6.34,6.34,0,0,1,.07-1.62,13.26,13.26,0,0,0,.26-3.64q0-31.08.06-62.16C252.09,223.25,252.14,222.3,252.16,221.35Z"/><path class="cls-8" d="M188,226.29c2.61-.38,5.25-.49,7.84-.89,2.08-.32,4.2-.07,6.24-.67a7.2,7.2,0,0,1,1.83-.07,6.05,6.05,0,0,0,2.21-.26,1.39,1.39,0,0,1,.6-.11c2.45.18,4.85-.47,7.29-.45a6.6,6.6,0,0,0,2.41-.28,3.19,3.19,0,0,1,1-.11,17.23,17.23,0,0,0,4.85-.39c2.79.21,5.53-.5,8.31-.45a9.09,9.09,0,0,0,3-.28,6.41,6.41,0,0,1,1.82-.11l5.5,0a13.33,13.33,0,0,1,0,3c-.52,2.2-.27,4.45-.62,6.66a48.39,48.39,0,0,0-.59,6.05,25.41,25.41,0,0,1-.41,3.82c-.25,1.34-.26,2.69-.48,4-.26,1.6-.45,3.21-.64,4.82s-.3,3.1-.52,4.63c-.33,2.34-.75,4.67-1.09,7s-.57,4.56-.94,6.82c-.6,3.66-1.28,7.32-1.91,11-.73,4.26-1.4,8.53-2.19,12.78-.69,3.72-1.54,7.41-2.27,11.12-1.21,6.17-2.49,12.32-4,18.42a9.9,9.9,0,0,0-.15,1.41,29.27,29.27,0,0,1-5.47-.23c-2.28-.3-4.56-.58-6.84-.93A137.38,137.38,0,0,1,196.57,319a127.36,127.36,0,0,1-15.77-5.36,7,7,0,0,0-3.38-.41c.31-1.59.62-3.18.95-4.76.64-3,1.16-6.1,1.54-9.18.31-2.48.75-4.93,1.09-7.41.21-1.54.33-3.09.51-4.63s.36-3.22.65-4.81c.22-1.27.29-2.56.43-3.82.19-1.74.47-3.48.58-5.24s.41-3.62.67-5.42c.19-1.34.26-2.7.39-4,.18-1.95.48-3.89.58-5.85s.39-3.62.6-5.43a5.11,5.11,0,0,0,.13-.8,39.76,39.76,0,0,1,.55-6.46c.24-2.08.24-4.17.62-6.25.35-1.92.25-3.91.54-5.85C187.59,231,187.41,228.59,188,226.29Z"/><path class="cls-8" d="M318.34,220.55l10.81.05a7.78,7.78,0,0,1,2.22.22A6,6,0,0,0,333,221c1.7,0,3.4,0,5.1,0a19.3,19.3,0,0,1,3.84.29,19.23,19.23,0,0,0,3.45.11,24,24,0,0,1,4.86.32,16.34,16.34,0,0,0,3.25.09,9.77,9.77,0,0,1,3.43.32,1.78,1.78,0,0,0,.61.06c1.16,0,2.31.08,3.47,0s2.11.55,3.22.4q0,5.7,0,11.4a1.75,1.75,0,0,1,0,.41c-.51,2.07-.27,4.18-.35,6.28a29.62,29.62,0,0,1-.37,6.07c.16,3-.44,5.94-.44,8.92,0,2.58-.6,5.12-.47,7.7a.64.64,0,0,1,0,.2c-.6,2.18-.27,4.44-.68,6.65a58.39,58.39,0,0,0-.51,6.06c0,.2,0,.41-.06.61-.23,1.74-.49,3.48-.69,5.22s-.19,3.39-.52,5c-.25,1.27-.24,2.56-.47,3.82a40.11,40.11,0,0,0-.62,4c-.13,1.69-.54,3.34-.71,5s-.76,3.31-.55,5a3.36,3.36,0,0,1-1.85.75c-3.23.73-6.49,1.25-9.77,1.72-4.48.64-9,1.06-13.44,1.93a74.62,74.62,0,0,0-10.76,2.85,5.22,5.22,0,0,1-2.15.55,17.81,17.81,0,0,0,.38-2.2c.13-2.64.28-5.28.36-7.92.19-6.18.06-12.36.06-18.54a5.22,5.22,0,0,0,0-1.22,26.25,26.25,0,0,1-.31-5.48c-.15-4.54.05-9.08-.34-13.63-.36-4.18-.06-8.4-.44-12.6-.29-3.23-.09-6.49-.37-9.75-.34-4-.12-8-.46-12-.25-3,.06-6-.49-8.93Z"/><path class="cls-8" d="M375.65,223.44a6,6,0,0,1,2.21.25,1.32,1.32,0,0,0,.59.12c2.11-.19,4.16.4,6.26.48,1.81.07,3.61.42,5.41.64a3.14,3.14,0,0,0,.6.1,30,30,0,0,1,5.44.53,36.79,36.79,0,0,1,4.61.57c1.37.32,2.8.37,4.21.56,1.6.22,3.2.43,4.79.71.93.16,1.88.2,2.81.32,1.8.23,3.57.81,5.42.55l.09.46c0,2.71.11,5.44-.1,8.13-.33,4.4-.17,8.8-.44,13.19a63.78,63.78,0,0,1-.39,6.47c-.42,2.55,0,5.16-.67,7.67a.85.85,0,0,0,0,.2c0,3-.54,5.92-.78,8.88-.21,2.63-.65,5.23-1,7.84-.35,2.87-1,5.71-1.51,8.57a9.06,9.06,0,0,0-.07,1,21.35,21.35,0,0,1-5.42,1.57c-2.83.64-5.68,1.15-8.55,1.59-1.93.3-3.89.4-5.84.56-1.61.13-3.23.23-4.85.31a66.06,66.06,0,0,1-7.88-.4,2.67,2.67,0,0,1,0-.81,13.71,13.71,0,0,0,.36-4c0-1.49-.06-3,0-4.48.16-3.4-.5-6.75-.44-10.14,0-2.37-.57-4.71-.45-7.09a.82.82,0,0,0,0-.2c-.5-2.46-.44-5-.69-7.46a44.14,44.14,0,0,1-.52-6.27,2.7,2.7,0,0,0-.07-.4c-.22-1.94-.54-3.88-.64-5.83a60.13,60.13,0,0,1-.51-6.27,3.74,3.74,0,0,0-.1-.6c-.22-1.88-.44-3.75-.66-5.63s-.48-3.89-.69-5.83S375.82,225.39,375.65,223.44Z"/><path class="cls-10" d="M225.14,323.76a9.9,9.9,0,0,1,.15-1.41c1.51-6.1,2.79-12.26,4-18.42.73-3.71,1.58-7.4,2.27-11.12.79-4.25,1.46-8.52,2.19-12.78.63-3.66,1.31-7.31,1.91-11,.37-2.27.61-4.55.94-6.82s.76-4.66,1.09-7c.22-1.54.33-3.09.52-4.63s.38-3.22.64-4.82c.22-1.33.23-2.69.48-4a25.41,25.41,0,0,0,.41-3.82,48.39,48.39,0,0,1,.59-6.05c.35-2.22.1-4.46.62-6.66a13.33,13.33,0,0,0,0-3,2.41,2.41,0,0,1,.19-.35c2.49-.13,5,.15,7.47-.39a17.16,17.16,0,0,1,3.44-.06l.08,0c0,.95-.07,1.9-.07,2.85q0,31.08-.06,62.16a13.26,13.26,0,0,1-.26,3.64,6.34,6.34,0,0,0-.07,1.62c0,2.92,0,5.84-.08,8.76-.1,3.52-.35,7-.48,10.56-.07,1.81-.22,3.65-.36,5.47-.11,1.41-.37,2.81-.61,4.21a4.18,4.18,0,0,0-.06,1.41c-3,.56-5.93,1.27-8.92,1.65a38.51,38.51,0,0,1-6.64.52c-2.63-.12-5.27,0-7.91-.05C226.11,324.16,225.54,324.27,225.14,323.76Z"/><path class="cls-10" d="M318.12,220.58c.55,3,.23,6,.49,8.93.34,4,.12,8,.46,12,.28,3.26.07,6.52.37,9.75.38,4.2.08,8.42.44,12.6.39,4.55.18,9.09.34,13.63a26.25,26.25,0,0,0,.31,5.48,5.22,5.22,0,0,1,0,1.22c0,6.18.13,12.37-.06,18.54-.08,2.63-.23,5.28-.36,7.92a17.81,17.81,0,0,1-.38,2.2,2.19,2.19,0,0,1-1.21.69c-4.53,1.55-9.14,2.86-13.78,4-2.61.65-5.26,1.13-7.9,1.67a6.53,6.53,0,0,1-1.21,0c.33-2.07.65-4.14,1-6.21.5-3,1-6,1.53-9s1-6.13,1.52-9.2c.18-1.13.32-2.28.48-3.41.38-2.67.78-5.35,1.15-8,.19-1.41.33-2.82.5-4.23.23-1.81.44-3.62.71-5.42.18-1.2.17-2.42.41-3.63.34-1.72.34-3.5.53-5.24s.45-3.62.67-5.43c0-.13.06-.27.07-.4.16-2.16.29-4.32.49-6.48s.46-4.43.69-6.65a2.75,2.75,0,0,0,.05-.4c-.12-2.52.5-5,.47-7.5,0-2.78.31-5.55.51-8.31.18-2.57.21-5.14.32-7.71a4.58,4.58,0,0,1,.21-1.81h6a4.28,4.28,0,0,1,1.39.07A11.62,11.62,0,0,0,318.12,220.58Z"/><path class="cls-10" d="M375.65,223.44c.18,2,.33,3.9.54,5.85s.46,3.89.69,5.83.44,3.76.66,5.63a3.74,3.74,0,0,1,.1.6,60.13,60.13,0,0,0,.51,6.27c.1,2,.42,3.89.64,5.83a2.7,2.7,0,0,1,.07.4,44.14,44.14,0,0,0,.52,6.27c.25,2.49.19,5,.69,7.46a.82.82,0,0,1,0,.2c-.13,2.38.49,4.71.45,7.09-.06,3.39.6,6.75.44,10.14-.07,1.49,0,3,0,4.48a13.71,13.71,0,0,1-.36,4,2.67,2.67,0,0,0,0,.81l-6,3.76a61,61,0,0,1-13.55,6.24,8.93,8.93,0,0,1-3.34.69c-.22-1.72.38-3.35.55-5s.57-3.32.71-5a40.11,40.11,0,0,1,.62-4c.23-1.26.22-2.55.47-3.82.33-1.65.33-3.36.52-5s.46-3.48.69-5.22c0-.2,0-.4.06-.61a58.39,58.39,0,0,1,.51-6.06c.41-2.21.08-4.48.68-6.65a.64.64,0,0,0,0-.2c-.13-2.58.47-5.12.47-7.7,0-3,.59-5.93.44-8.92a29.62,29.62,0,0,0,.37-6.07c.08-2.09-.16-4.21.35-6.28a1.75,1.75,0,0,0,0-.41q0-5.7,0-11.4l.09,0a16.59,16.59,0,0,1,3.44.06,19.38,19.38,0,0,0,3.82.31,3.47,3.47,0,0,1,1.21.08,8.72,8.72,0,0,0,2.8.36Z"/><path class="cls-11" d="M252.08,221.38a17.16,17.16,0,0,0-3.44.06c-2.49.54-5,.26-7.47.39a18.33,18.33,0,0,0-1.07-6c-.12-.46-.22-.92-.33-1.38l11.09,0A20.67,20.67,0,0,1,252.08,221.38Z"/><path class="cls-11" d="M375.57,223.47a8.72,8.72,0,0,1-2.8-.36,3.47,3.47,0,0,0-1.21-.08,19.38,19.38,0,0,1-3.82-.31,16.59,16.59,0,0,0-3.44-.06l-.15-4.88a9,9,0,0,1,3.77.29.87.87,0,0,0,.4.05c2.21-.2,4.37.41,6.57.46A45.54,45.54,0,0,1,375.57,223.47Z"/></svg>