<?xml version="1.0" standalone="no"?>
<!DOCTYPE svg PUBLIC "-//W3C//DTD SVG 20010904//EN"
 "http://www.w3.org/TR/2001/REC-SVG-20010904/DTD/svg10.dtd">
<svg version="1.0" xmlns="http://www.w3.org/2000/svg"
 width="38.000000pt" height="38.000000pt" viewBox="0 0 38.000000 38.000000"
 preserveAspectRatio="xMidYMid meet">
<style type="text/css">
	.st0{fill:#013B0C;}
	.st1{fill:#FF7835;}
	.st2{fill:#F4F0E2;}
	.st3{fill:#8CAE9A;}
	.st4{fill:#FEFEFE;}
	.st5{fill:#FF976E;}
	.st6{fill:#FCD3C2;}
	.st7{fill:#FFD4C2;}
	.st8{fill:#FFFFFF;}
	.st9{fill:#FFC6AA;}
	.st10{fill:#D52548;}
	.st11{fill:#556111;}
	.st12{fill:#F27F49;}
</style>
<path class="st0" d="M0,13.3V13c0,0,0-0.1,0-0.1c0-0.3,0.2-0.5,0.3-0.7c0.2-0.3,0.4-0.5,0.7-0.7c0.4-0.3,0.8-0.5,1.2-0.7
	c0.9-0.4,1.9-0.7,2.9-0.9c0.4-0.1,0.9-0.1,1.3-0.2c0.4,0,0.8-0.1,1.2-0.1c0.5,0,1,0,1.5,0c0.5,0,1,0,1.5,0.1c0.5,0,0.9,0.1,1.4,0.2
	c0.6,0.1,1.2,0.3,1.9,0.4c0.7,0.2,1.4,0.5,2.1,0.9c0,0,0.1,0,0.1,0c0.3-0.2,0.7-0.5,1-0.7l2.5-1.7L21,7.9c0,0,0.1,0,0.1-0.1
	c0.2-0.3,0.5-0.5,0.9-0.5c0.1,0,0.2,0,0.3,0c0.1,0,0.1,0,0.2,0c0,0,0.1,0,0.1,0c0.3,0.1,0.7,0.2,1,0.3c0.5,0.2,1,0.5,1.4,0.9
	c0.7,0.5,1.4,1.1,2,1.8c1.3,1.4,2.3,3,3.1,4.8c0.4,0.9,0.8,1.9,1,3c0.1,0.4,0.1,0.8,0.1,1.2c0,0.3,0,0.6-0.1,1
	c0,0.1-0.1,0.3-0.1,0.4c0,0-0.1,0-0.1,0l-0.4,0l0,0c0.1-0.1,0.2-0.3,0.2-0.4c0.1-0.2,0.1-0.5,0.1-0.8c0-0.3,0-0.7-0.1-1
	c0-0.3-0.1-0.6-0.3-0.9c0-0.1,0-0.1-0.1-0.2c-0.1-0.3-0.2-0.5-0.2-0.8c0-0.3-0.1-0.5-0.3-0.7c0-0.1-0.1-0.2-0.1-0.2
	c-0.1-0.2-0.2-0.3-0.3-0.5c-0.1-0.2-0.2-0.4-0.2-0.6c-0.2-0.4-0.4-0.8-0.6-1.1c-0.1-0.1-0.1-0.2-0.2-0.2c-0.2-0.3-0.4-0.5-0.5-0.8
	c-0.1-0.1-0.1-0.2-0.2-0.3c-0.1-0.3-0.3-0.5-0.5-0.7c-0.2-0.2-0.4-0.4-0.6-0.6c-0.2-0.2-0.5-0.5-0.7-0.7c-0.3-0.3-0.6-0.6-0.9-0.9
	c-0.4-0.4-0.9-0.7-1.4-0.9C23.5,8,23.3,8,23.1,7.9c-0.2-0.1-0.4-0.1-0.5-0.1c-0.3,0-0.6,0.1-0.9,0.3c-0.1,0.1-0.2,0.3-0.2,0.4
	c0,0.2-0.1,0.4-0.2,0.7c0,0.2-0.1,0.3,0,0.5c0,0.2,0,0.3,0,0.5c0,0.4,0.1,0.7,0.1,1.1c0.1,0.4,0.2,0.7,0.2,1.1
	c0,0.2,0.1,0.5,0.2,0.7c0,0.1,0.1,0.1,0.1,0.2c0.1,0.2,0.2,0.4,0.3,0.6c0.1,0.2,0.2,0.4,0.3,0.6c0.2,0.5,0.4,0.9,0.7,1.3
	c0.2,0.4,0.5,0.7,0.7,1.1c0,0,0,0.1,0.1,0.1c0.2,0.3,0.3,0.5,0.6,0.7c0.3,0.3,0.6,0.6,0.9,0.9c0,0,0,0-0.1,0c-0.2,0-0.4-0.1-0.6-0.1
	c-0.1,0-0.3-0.1-0.4-0.1c-0.1,0-0.2-0.1-0.3-0.1c-0.4-0.1-0.8-0.2-1.3-0.2c-0.1,0-0.2,0-0.3,0c0,0,0,0,0,0c0,0,0-0.1-0.1-0.1
	c0,0,0,0,0,0c0,0,0,0,0,0l-1.1,0c0,0-0.1,0-0.1,0s0,0,0,0.1c0,0,0,0-0.1,0c-0.2,0-0.5-0.1-0.7-0.1c-0.2,0-0.4-0.1-0.6-0.1
	c-0.3,0-0.5-0.1-0.8-0.1c0,0,0,0,0,0c0,0,0-0.1-0.1-0.1c-0.2,0-0.4,0-0.7,0c-0.1,0-0.1,0-0.2,0c-0.1,0-0.3,0-0.4,0c0,0,0,0-0.1,0
	l-0.7,0c-0.3,0-0.6,0-1,0c-0.3,0-0.6,0-0.8,0.1c0,0-0.1,0-0.1,0c0-0.1-0.1-0.1-0.1,0c-0.3,0.1-0.6,0.1-1,0.2c-0.1,0-0.2,0-0.3,0.1
	c0,0.1,0,0.1,0,0.1c0,0-0.1,0-0.1,0c-0.3,0-0.7,0-1,0c-0.3,0-0.6,0-0.9,0.1c-0.1,0-0.2,0-0.3,0c0,0,0,0,0,0c0,0-0.1,0-0.1,0
	c-0.1,0-0.2,0-0.3,0c-0.3,0-0.7,0.1-1,0.1c0,0-0.1,0-0.1,0.1c-0.4,0.1-0.8,0.2-1.2,0.3c-0.3,0.1-0.5,0.2-0.8,0.3
	c-0.1,0-0.2,0.1-0.3,0.2c-0.3,0.2-0.6,0.3-0.8,0.6c-0.4,0.3-0.8,0.8-1.1,1.2c-0.5,0.8-0.7,1.7-0.6,2.6c0,0.1,0,0.2,0.1,0.3
	c0,0,0,0,0,0.1l0,0.1c0,0-0.1,0-0.1,0c-0.2-0.1-0.5-0.1-0.7-0.2c-0.4-0.1-0.7-0.2-1.1-0.3c-0.9-0.3-1.7-0.8-2.4-1.4
	c-0.3-0.2-0.5-0.5-0.7-0.8c-0.1-0.1-0.1-0.1-0.1-0.2c0-0.2,0-0.4,0-0.7c0-1,0-2.1,0-3.1c0-0.9,0-1.8,0-2.7c0-0.2,0-0.5,0-0.7
	c0,0,0-0.1,0-0.1C0.1,13.5,0.1,13.4,0,13.3C0,13.3,0,13.3,0,13.3z M15.7,11.5C15.7,11.4,15.7,11.4,15.7,11.5c-0.3-0.2-0.7-0.4-1-0.5
	c-0.2-0.1-0.4-0.1-0.7-0.2c-0.3-0.1-0.7-0.2-1-0.3c-0.1,0-0.1-0.1-0.2-0.1c-0.1,0-0.2-0.1-0.4-0.1c-0.2,0-0.3,0-0.5,0
	c-0.2,0-0.3,0-0.5,0c-0.3,0-0.6-0.1-0.9-0.2c-0.2,0-0.5-0.1-0.7-0.1c-0.3,0-0.5,0-0.8,0c-0.5,0-0.9,0-1.4,0c-0.3,0-0.6,0-0.9,0
	c-0.4,0-0.8,0.1-1.1,0.2c-0.5,0.1-1,0.2-1.5,0.3c-0.3,0.1-0.6,0.1-1,0.2c-0.4,0.1-0.8,0.3-1.2,0.5c-0.4,0.3-0.8,0.6-1.1,0.9
	c-0.1,0.1-0.2,0.2-0.3,0.3c-0.1,0.2-0.2,0.4-0.2,0.7c0,0.3,0.1,0.5,0.3,0.6C1,13.8,1.2,14,1.3,14.2c0.1,0.1,0.2,0.2,0.3,0.3
	c0.2,0.1,0.5,0.3,0.7,0.4C2.7,15,3,15.1,3.3,15.3c0.4,0.2,0.8,0.3,1.2,0.5c0.1,0,0.1,0,0.2,0.1c0.2,0.1,0.5,0.1,0.7,0.1
	c0.2,0,0.5,0,0.7,0.1c0.2,0,0.4,0,0.6,0.1c0.1,0,0.3,0.1,0.4,0.1c0.4,0,0.7,0.1,1.1,0.1c0.3,0,0.6,0,1,0c0.2,0,0.4,0,0.6,0
	c0.1,0,0.3,0,0.4,0c0.3,0,0.5-0.1,0.8-0.1c0.3-0.1,0.7-0.1,1-0.2c0.3,0,0.5-0.1,0.7-0.2c0.2-0.1,0.5-0.1,0.8-0.2
	c0.2,0,0.4-0.1,0.6-0.2c0.1-0.1,0.3-0.1,0.4-0.2c0.1-0.1,0.2-0.1,0.3-0.1c0.1,0,0.1,0,0.1-0.1c0,0,0,0,0,0c0-0.3-0.1-0.5-0.1-0.8
	c0-0.5,0-1,0.1-1.5c0.1-0.3,0.1-0.6,0.2-0.8c0-0.1,0.1-0.1,0.1-0.1C15.5,11.6,15.6,11.5,15.7,11.5L15.7,11.5z"/>
<path class="st1" d="M32.9,23.9c0.2,0.1,0.5,0.2,0.7,0.3c0.8,0.4,1.7,0.8,2.5,1.3c0.4,0.2,0.8,0.5,1.2,0.8c0.1,0.1,0.2,0.2,0.3,0.2
	c0,0,0,0,0,0c0,0,0,0,0,0.1c-0.1,0-0.3,0.1-0.4,0.1c-0.3,0.1-0.5,0.1-0.8,0.1c-0.5,0-0.9,0-1.4,0c-0.3,0-0.6,0-0.9-0.1
	c-0.6-0.1-1.2-0.2-1.8-0.3c-0.3-0.1-0.6-0.2-0.9-0.2c-0.1,0-0.1,0-0.2,0c-0.1,0-0.2,0-0.4-0.1c-0.3-0.1-0.7-0.2-1-0.4
	c-0.1,0-0.1-0.1-0.2-0.1c-0.1-0.1-0.1-0.1-0.2-0.1c0,0,0,0-0.1,0c-0.4-0.2-0.8-0.5-1.2-0.7c0,0-0.1-0.1-0.2-0.1c0,0,0,0,0.1-0.1
	c0.1,0,0.2-0.1,0.3-0.1c0.2-0.1,0.4-0.1,0.7-0.2c0.2-0.1,0.4-0.1,0.6-0.1c0.2,0,0.5-0.1,0.7-0.2c0.3-0.1,0.7-0.2,1-0.4
	c0,0,0.1,0,0.1,0c0,0,0,0,0-0.1c0,0,0,0,0,0c0,0-0.1-0.1-0.1-0.1c-0.1-0.1-0.3-0.2-0.4-0.3c-0.3-0.2-0.5-0.4-0.8-0.5
	c-0.2-0.1-0.4-0.2-0.6-0.3c-0.2-0.1-0.5-0.2-0.7-0.3c-0.3-0.1-0.5-0.2-0.8-0.2c-0.2,0-0.3,0-0.5,0c-0.1,0-0.3,0-0.4,0
	c-0.1,0-0.1,0-0.2,0c-0.1,0-0.1,0-0.2,0l0,0c0-0.1,0-0.1,0-0.2c0-0.1,0-0.1,0-0.2c0,0,0,0,0.1,0c0.2,0,0.3,0,0.5,0.1c0,0,0,0,0,0
	c0.1,0,0.3,0,0.4,0c0.1,0,0.2,0,0.3,0c0.3,0,0.5,0.1,0.8,0.2c0.4,0.1,0.8,0.3,1.1,0.4c0.1,0.1,0.2,0.1,0.3,0.2
	c0.2,0.1,0.4,0.2,0.6,0.3c0.2,0.1,0.5,0.3,0.7,0.5c0.1,0.1,0.3,0.2,0.4,0.3c0,0,0.1,0.1,0.1,0.1c0,0,0,0,0,0c0,0,0,0,0,0
	c0-0.1,0-0.3,0-0.4c-0.1-0.3-0.2-0.5-0.3-0.8c-0.1-0.1-0.1-0.3-0.2-0.4c-0.1-0.1-0.1-0.3-0.2-0.4c-0.1-0.2-0.2-0.4-0.4-0.5
	c0-0.1-0.1-0.1-0.1-0.2l0.4,0c0,0,0.1,0,0.1,0c0.2,0,0.5,0.1,0.7,0.1c0.6,0.1,1.1,0.3,1.7,0.5c0.8,0.3,1.6,0.8,2.3,1.3
	c0.9,0.7,1.6,1.7,2,2.7c0.1,0.1,0.1,0.3,0.1,0.4c0,0.1,0,0.1,0.1,0.2c0,0,0,0,0,0V26c-0.1-0.1-0.3-0.1-0.4-0.2
	c-0.9-0.4-1.8-0.9-2.7-1.2c-0.5-0.2-1.1-0.4-1.7-0.6C33.1,23.9,33,23.9,32.9,23.9c0-0.1-0.1-0.1-0.2-0.1
	C32.8,23.9,32.9,23.9,32.9,23.9z M32.7,23.8C32.7,23.8,32.7,23.8,32.7,23.8C32.7,23.8,32.7,23.8,32.7,23.8
	C32.7,23.8,32.7,23.8,32.7,23.8C32.7,23.8,32.7,23.8,32.7,23.8L32.7,23.8z"/>
<path class="st2" d="M29.4,25.4c0.1,0,0.2,0.1,0.2,0.1c0,0,0,0,0,0.1c-0.1,0.1-0.1,0.2-0.1,0.4c0,0.2-0.1,0.4-0.2,0.5
	c-0.1,0.1-0.2,0.2-0.3,0.2c-0.1,0-0.1,0.1-0.2,0.1c-0.1,0-0.1,0.1-0.2,0.1c-0.2,0.2-0.3,0.3-0.4,0.5c-0.1,0.2-0.3,0.3-0.4,0.5
	c-0.1,0.1-0.3,0.2-0.5,0.3c-0.2,0.1-0.4,0.2-0.6,0.3c-0.2,0.1-0.3,0.1-0.5,0.1c-0.1,0-0.2,0-0.3,0c-0.1,0-0.2,0-0.3,0
	c-0.1,0-0.2,0-0.3,0c0,0-0.1,0-0.1,0c0,0,0,0-0.1,0c-0.2,0-0.4,0.1-0.6,0.1c-0.1,0-0.2,0.1-0.3,0.1c-0.1,0-0.2,0.1-0.2,0.1
	c-0.1,0.1-0.3,0.2-0.4,0.3c-0.1,0.1-0.3,0.2-0.5,0.3c-0.2,0.1-0.5,0.2-0.7,0.2c-0.1,0-0.2,0-0.3,0.1c-0.1,0-0.2,0-0.2,0
	c0,0-0.1,0-0.1,0c0,0-0.1,0-0.1,0c-0.1,0-0.1,0-0.2,0c-0.2,0-0.4,0-0.6,0.1c-0.2,0.1-0.4,0.1-0.6,0.1c-0.1,0-0.2,0-0.3,0
	c0,0,0,0-0.1,0c-0.1,0-0.1,0-0.2,0c0,0-0.1,0-0.1,0h-0.2c-0.2,0-0.4,0-0.5-0.1c-0.2-0.1-0.4-0.1-0.6-0.1c-0.1,0-0.2,0-0.2,0
	c-0.2,0-0.4,0.1-0.5,0.2c-0.2,0.1-0.4,0.2-0.7,0.2c-0.1,0-0.2,0-0.3,0.1c0,0-0.1,0-0.1,0.1h-0.3c0,0,0,0-0.1,0
	c-0.1,0-0.3-0.1-0.4-0.1c-0.2-0.1-0.4-0.1-0.6-0.1c-0.2,0-0.3,0-0.5,0.1c-0.1,0-0.3,0-0.5,0c-0.2,0-0.4,0-0.7-0.1
	c-0.3-0.1-0.5-0.2-0.8-0.2c-0.1,0-0.3-0.1-0.4-0.1c-0.1,0-0.1,0-0.2,0c0,0-0.1,0-0.1,0c0,0,0,0,0,0c-0.1,0-0.3,0-0.4,0
	c0,0,0,0-0.1,0c-0.2,0-0.4,0-0.5,0c-0.2,0-0.3,0-0.5-0.1c-0.2,0-0.3-0.1-0.5-0.1c-0.1,0-0.2,0-0.3-0.1c-0.1,0-0.2,0-0.2,0
	c0,0,0,0-0.1,0c-0.1,0-0.2,0-0.3,0c0,0-0.1,0-0.1,0c0,0-0.1,0-0.1,0c-0.3,0-0.5-0.1-0.7-0.2c-0.1-0.1-0.2-0.1-0.2-0.2
	c0,0-0.1-0.1-0.1-0.2c-0.1-0.1-0.1-0.2-0.2-0.2C7.4,29,7.2,29,7.1,29c-0.2-0.1-0.3-0.1-0.5-0.2c-0.3-0.2-0.5-0.5-0.5-0.8
	c0-0.1,0-0.1-0.1-0.2c-0.1-0.2-0.2-0.3-0.2-0.5c-0.1-0.1-0.1-0.2-0.1-0.4c0,0,0-0.1,0-0.1c0-0.1,0-0.2,0-0.3c0,0,0,0,0,0
	c0,0-0.1-0.1-0.1-0.1c0,0-0.1-0.1-0.1-0.1c0-0.1-0.1-0.3,0-0.4c0-0.1,0-0.2,0-0.2c0-0.1,0-0.2,0-0.2s0-0.2,0-0.3c0,0,0-0.1,0-0.1
	c0.1,0.1,0.2,0.3,0.2,0.4c0,0-0.1,0-0.1,0.1c0,0.1,0,0.1,0,0.2c0,0.1,0,0.3,0,0.4c0,0.1,0.1,0.2,0.1,0.2c0,0,0.1,0,0.1,0
	c0,0,0,0,0,0c0,0.1,0,0.1-0.1,0.2c-0.1,0.1-0.1,0.3,0,0.4c0,0.2,0.1,0.3,0.2,0.5c0.1,0.1,0.1,0.2,0.2,0.4c0,0.1,0.1,0.2,0.1,0.3
	c0,0.2,0.1,0.3,0.2,0.4c0.1,0.1,0.3,0.2,0.4,0.3c0.1,0,0.3,0.1,0.4,0.1c0.2,0.1,0.4,0.2,0.5,0.4c0.1,0.1,0.1,0.1,0.2,0.2
	c0.1,0.1,0.2,0.2,0.4,0.2c0.1,0,0.3,0.1,0.4,0.1c0.2,0,0.4,0,0.5,0c0.1,0,0.2,0,0.3,0c0.2,0,0.4,0.1,0.5,0.1c0.1,0,0.2,0.1,0.3,0.1
	c0.1,0,0.2,0,0.2,0c0.1,0,0.2,0,0.3,0c0.1,0,0.1,0,0.2,0c0,0,0,0,0.1,0c0.1,0,0.2,0,0.3,0c0.2,0,0.4,0,0.6,0c0.2,0,0.5,0.1,0.7,0.2
	c0.2,0.1,0.4,0.1,0.6,0.2c0.1,0,0.1,0,0.2,0c0.1,0,0.2,0,0.3,0c0.1,0,0.1,0,0.2,0c0,0,0.1,0,0.1,0c0.1,0,0.2,0,0.2,0
	c0.1,0,0.1,0,0.2,0c0.1,0,0.2,0,0.2,0c0,0,0.1,0,0.1,0c0,0,0,0,0.1,0c0.2,0,0.3,0.1,0.5,0.1c0.1,0.1,0.3,0.1,0.5,0.1
	c0.1,0,0.2,0,0.2,0c0.2-0.1,0.5-0.1,0.7-0.2c0.2-0.1,0.4-0.2,0.6-0.2c0.2,0,0.3-0.1,0.5-0.1c0.1,0,0.1,0,0.2,0c0.2,0,0.3,0,0.4,0.1
	c0.1,0,0.2,0.1,0.4,0.1c0.1,0,0.2,0,0.3,0c0.2,0,0.3,0,0.5-0.1c0,0,0.1,0,0.1,0c0.2,0,0.3-0.1,0.5-0.1c0.2-0.1,0.5-0.1,0.7-0.1
	c0.2,0,0.3,0,0.5,0c0.1,0,0.2,0,0.3,0c0.3,0,0.5-0.1,0.8-0.2c0.3-0.1,0.5-0.3,0.8-0.5c0.1,0,0.1-0.1,0.2-0.2
	c0.2-0.1,0.3-0.2,0.5-0.3c0.3-0.1,0.6-0.2,1-0.2c0.1,0,0.1,0,0.2,0c0.1,0,0.2,0,0.4,0c0.1,0,0.1,0,0.2,0c0.1,0,0.1,0,0.2,0
	c0.3-0.1,0.6-0.2,0.8-0.3c0.3-0.2,0.5-0.3,0.7-0.6c0,0,0,0,0,0c0.1-0.1,0.2-0.3,0.3-0.4c0.2-0.2,0.3-0.4,0.6-0.5
	c0.1,0,0.2-0.1,0.2-0.1c0.1-0.1,0.2-0.2,0.2-0.3c0,0,0,0,0,0c0-0.1,0-0.2,0-0.3c0,0,0-0.1,0-0.1C29.3,25.6,29.4,25.5,29.4,25.4z"/>
<path class="st3" d="M22,7.3C22,7.3,22,7.3,22,7.3l0.5,0c0,0,0,0,0,0c-0.1,0-0.1,0-0.2,0C22.2,7.3,22.1,7.3,22,7.3z"/>
<path class="st4" d="M15.7,11.5c-0.1,0.1-0.2,0.1-0.3,0.2c-0.1,0-0.1,0.1-0.1,0.1c-0.1,0.3-0.2,0.5-0.2,0.8c-0.1,0.5-0.1,1-0.1,1.5
	c0,0.3,0,0.5,0.1,0.8c0,0,0,0,0,0c0,0.1,0,0.1-0.1,0.1c-0.1,0-0.2,0.1-0.3,0.1c-0.1,0.1-0.3,0.1-0.4,0.2c-0.2,0.1-0.4,0.2-0.6,0.2
	c-0.3,0-0.5,0.1-0.8,0.2c-0.2,0.1-0.5,0.1-0.7,0.2c-0.4,0-0.7,0.1-1,0.2c-0.3,0.1-0.5,0.1-0.8,0.1c-0.1,0-0.3,0-0.4,0
	c-0.2,0-0.4,0-0.6,0c-0.3,0-0.6,0-1,0c-0.4,0-0.7,0-1.1-0.1c-0.1,0-0.3,0-0.4-0.1C6.5,16,6.3,16,6.1,16c-0.2,0-0.5,0-0.7-0.1
	c-0.3,0-0.5-0.1-0.7-0.1c-0.1,0-0.1,0-0.2-0.1c-0.4-0.2-0.8-0.3-1.2-0.5C3,15.1,2.7,15,2.4,14.9c-0.2-0.1-0.5-0.3-0.7-0.4
	c-0.1-0.1-0.2-0.2-0.3-0.3C1.2,14,1,13.8,0.9,13.7c-0.2-0.2-0.3-0.4-0.3-0.6c0-0.2,0.1-0.5,0.2-0.7c0.1-0.1,0.2-0.2,0.3-0.3
	c0.4-0.3,0.7-0.6,1.1-0.9c0.4-0.2,0.8-0.4,1.2-0.5c0.3-0.1,0.6-0.1,1-0.2c0.5-0.1,1-0.2,1.5-0.3C6.2,10.1,6.6,10,7,10
	c0.3,0,0.6,0,0.9,0c0.4,0,0.9,0.1,1.4,0c0.3,0,0.5,0,0.8,0c0.2,0,0.5,0,0.7,0.1c0.3,0.1,0.6,0.1,0.9,0.2c0.2,0,0.3,0,0.5,0
	c0.2,0,0.3,0,0.5,0c0.1,0,0.3,0,0.4,0.1c0.1,0,0.1,0,0.2,0.1c0.3,0.1,0.6,0.2,1,0.3c0.2,0,0.5,0.1,0.7,0.2
	C15,11.1,15.4,11.2,15.7,11.5C15.7,11.4,15.7,11.4,15.7,11.5z M6.2,14.3C6.2,14.3,6.2,14.3,6.2,14.3c0.4,0.1,0.7,0.2,1,0.3
	c0.4,0.1,0.7,0.2,1.1,0.2c0.2,0,0.4,0.1,0.6,0.1c0.2,0,0.4,0,0.6,0.1c0.1,0,0.2,0,0.3,0c0.4-0.2,0.8-0.3,1.2-0.5
	c0.3-0.1,0.6-0.3,0.9-0.5c0,0,0.1,0,0.1-0.1c0.3-0.2,0.5-0.3,0.8-0.5c0.3-0.2,0.5-0.4,0.8-0.7c0,0,0.1,0,0-0.1
	c-0.1,0-0.2-0.1-0.3-0.2c-0.8-0.4-1.7-0.7-2.6-0.9c-0.5-0.1-1.1-0.3-1.6-0.3c-0.1,0-0.3,0-0.4,0c-0.1,0-0.1,0-0.2,0
	c-0.5,0.1-0.9,0.2-1.4,0.4c0,0-0.1,0-0.1,0c-0.2,0-0.3,0-0.5,0.1c-0.6,0.1-1.2,0.3-1.8,0.5c-0.4,0.1-0.7,0.3-1.1,0.5
	c0,0-0.1,0-0.1,0.1c0,0.1,0,0.1,0.1,0.2C3.8,12.9,3.8,13,3.9,13c0.2,0.2,0.4,0.3,0.6,0.5C5,13.8,5.5,14,5.9,14.2
	C6,14.3,6.1,14.3,6.2,14.3z"/>
<path class="st4" d="M25.4,18.4c-0.3-0.3-0.6-0.6-0.9-0.9c-0.2-0.2-0.4-0.5-0.6-0.7c0,0,0-0.1-0.1-0.1c-0.2-0.4-0.5-0.7-0.7-1.1
	c-0.3-0.4-0.5-0.9-0.7-1.3c-0.1-0.2-0.2-0.4-0.3-0.6c-0.1-0.2-0.2-0.4-0.3-0.6c0-0.1-0.1-0.1-0.1-0.2c-0.1-0.2-0.2-0.5-0.2-0.7
	c-0.1-0.4-0.1-0.7-0.2-1.1c-0.1-0.4-0.1-0.7-0.1-1.1c0-0.2,0-0.3,0-0.5c0-0.2,0-0.3,0-0.5c0.1-0.2,0.1-0.4,0.2-0.7
	c0-0.2,0.1-0.3,0.2-0.4c0.2-0.2,0.5-0.3,0.9-0.3c0.2,0,0.4,0.1,0.5,0.1C23.3,8,23.5,8,23.8,8.1c0.5,0.2,1,0.5,1.4,0.9
	c0.3,0.3,0.6,0.6,0.9,0.9c0.2,0.2,0.5,0.5,0.7,0.7c0.2,0.2,0.4,0.4,0.6,0.6c0.2,0.2,0.4,0.5,0.5,0.7c0.1,0.1,0.1,0.2,0.2,0.3
	c0.2,0.3,0.3,0.6,0.5,0.8c0.1,0.1,0.1,0.2,0.2,0.2c0.3,0.3,0.5,0.7,0.6,1.1c0.1,0.2,0.2,0.4,0.2,0.6c0.1,0.2,0.2,0.3,0.3,0.5
	c0,0.1,0.1,0.2,0.1,0.2c0.1,0.2,0.2,0.5,0.3,0.7c0,0.3,0.1,0.6,0.2,0.8c0,0.1,0,0.1,0.1,0.2c0.1,0.3,0.2,0.6,0.3,0.9
	c0.1,0.3,0.1,0.7,0.1,1c0,0.3-0.1,0.5-0.1,0.8c0,0.1-0.1,0.3-0.2,0.4c-0.1,0-0.1,0-0.2-0.1c-0.2-0.1-0.4-0.3-0.6-0.5
	c-0.1,0-0.1-0.1-0.2-0.1c-0.1,0-0.2-0.1-0.3-0.1c-0.8-0.3-1.6-0.6-2.5-0.9c-0.3-0.1-0.7-0.2-1-0.3c-0.1,0-0.1,0-0.2-0.1
	C25.5,18.5,25.5,18.5,25.4,18.4z M23.7,13C23.7,13,23.7,13,23.7,13c0,0.2,0.1,0.3,0.1,0.4c0.2,0.5,0.4,1,0.6,1.5
	c0.2,0.4,0.3,0.7,0.5,1c0,0.1,0.1,0.2,0.2,0.2c0.3,0.2,0.5,0.4,0.8,0.5c0.3,0.2,0.7,0.4,1.1,0.6c0,0,0.1,0.1,0.1,0
	c0.3,0.1,0.6,0.3,1,0.4c0.3,0.1,0.5,0.2,0.8,0.2c0.1,0,0.1,0,0.1-0.1c0-0.1,0-0.1,0-0.2c-0.1-0.5-0.1-0.9-0.3-1.4
	c-0.2-0.9-0.6-1.8-0.9-2.7c-0.1-0.2-0.2-0.3-0.3-0.4c0,0,0,0,0,0c-0.3-0.3-0.7-0.7-1.1-0.9c0,0,0-0.1-0.1-0.1
	c-0.4-0.4-0.8-0.8-1.2-1.2c-0.3-0.3-0.7-0.5-1.1-0.7c-0.1,0-0.1-0.1-0.2-0.1c0,0-0.1,0-0.1,0c-0.1,0.1-0.1,0.2-0.1,0.3
	c0,0.3-0.1,0.6,0,1c0,0.4,0.1,0.9,0.1,1.3C23.6,12.9,23.7,12.9,23.7,13z"/>
<path class="st5" d="M5.8,25.4c-0.1-0.1-0.1-0.3-0.2-0.4c0,0,0-0.1,0-0.1c-0.2-0.3-0.3-0.7-0.4-1.1c0,0,0,0,0,0l0-0.1c0,0,0,0,0.1,0
	c0.1-0.2,0.3-0.4,0.4-0.6c0.1-0.1,0.3-0.2,0.4-0.4c0.2-0.2,0.4-0.3,0.6-0.4c0.3-0.2,0.6-0.3,1-0.4c0.4-0.1,0.8-0.2,1.2-0.2
	c0,0,0,0,0,0c0,0,0.1,0,0.2,0c0.1,0,0.2,0,0.3,0c0.1,0,0.2,0,0.3,0c0.1,0,0.1,0,0.2,0c0.2,0,0.3,0,0.5-0.1c0.1,0,0.2,0,0.2,0
	c0.1,0,0.2,0,0.3,0c0,0,0,0,0,0.1c0,0.2-0.1,0.3-0.1,0.5c-0.1,0.3-0.1,0.7-0.2,1c-0.1,0.4-0.2,0.9-0.3,1.3c-0.1,0.5-0.3,1-0.4,1.4
	c-0.1,0.3-0.2,0.5-0.3,0.8l-0.1,0.2c-0.1,0-0.1,0-0.2,0c-0.2,0-0.4,0-0.6-0.1c-0.2,0-0.4-0.1-0.6-0.1c-0.3,0-0.5-0.1-0.8-0.2
	c-0.4-0.1-0.7-0.3-1-0.4c-0.1,0-0.1-0.1-0.2-0.2C6,25.6,5.9,25.5,5.8,25.4z"/>
<path class="st5" d="M5.1,23.6c0-0.1,0-0.2-0.1-0.3c-0.1-0.9,0.1-1.8,0.6-2.6c0.3-0.5,0.7-0.9,1.1-1.2c0.3-0.2,0.5-0.4,0.8-0.6
	c0.1,0,0.2-0.1,0.3-0.2c0.3-0.1,0.5-0.2,0.8-0.3c0.4-0.1,0.8-0.2,1.2-0.3c0,0,0,0.1,0,0.1c0.1,0.4,0.3,0.7,0.4,1.1
	c0.2,0.5,0.4,1.1,0.6,1.6v0c0,0-0.1,0-0.1,0c-0.1,0-0.2,0-0.3,0c-0.1,0-0.2,0-0.2,0c-0.2,0-0.3,0.1-0.5,0.1c-0.1,0-0.1,0-0.2,0
	c-0.1,0-0.2,0-0.4,0c-0.2,0-0.3,0-0.5,0.1c-0.2,0-0.5,0.1-0.7,0.1s-0.5,0.1-0.7,0.2c-0.4,0.1-0.7,0.3-1,0.5
	c-0.1,0.1-0.3,0.2-0.4,0.3c-0.1,0-0.1,0.1-0.2,0.1c-0.1,0.1-0.2,0.2-0.3,0.3c-0.1,0.1-0.1,0.1-0.2,0.2c0,0,0,0,0,0.1
	c0,0.1,0,0.2,0,0.4C5.2,23.5,5.2,23.5,5.1,23.6z"/>
<path class="st5" d="M25.8,18.6c0.3,0.1,0.7,0.2,1,0.3c0.8,0.3,1.7,0.6,2.5,0.9c0.1,0,0.2,0.1,0.3,0.1c0.1,0,0.1,0.1,0.2,0.1
	c0.2,0.2,0.4,0.3,0.6,0.5c0,0,0.1,0.1,0.2,0.1l0,0c0,0.1,0.1,0.1,0.1,0.2c0.1,0.2,0.3,0.3,0.4,0.5c0.1,0.1,0.2,0.3,0.2,0.4
	c0.1,0.1,0.1,0.3,0.2,0.4c0.1,0.3,0.2,0.5,0.3,0.8c0,0.1,0,0.3,0,0.4c0,0,0,0,0,0c0,0,0,0,0,0c0,0-0.1-0.1-0.1-0.1
	c-0.1-0.1-0.3-0.2-0.4-0.3c-0.2-0.2-0.5-0.3-0.7-0.5c-0.2-0.1-0.4-0.2-0.6-0.3c-0.1-0.1-0.2-0.1-0.3-0.2c-0.4-0.2-0.7-0.3-1.1-0.4
	c-0.3-0.1-0.5-0.1-0.8-0.2c-0.1,0-0.2,0-0.3,0c-0.1,0-0.3,0-0.4,0c0,0,0,0,0,0c-0.2,0-0.3,0-0.5-0.1c0,0,0,0-0.1,0h0
	c0,0,0-0.1,0-0.1c-0.1-0.3-0.2-0.5-0.2-0.8c-0.1-0.5-0.3-0.9-0.4-1.4C25.9,18.8,25.8,18.7,25.8,18.6z"/>
<path class="st5" d="M15.1,17.5c0.3,0,0.6-0.1,0.8-0.1c0.3,0,0.6,0,1,0l0.7,0c0,0,0,0,0,0l0.7,1.4l0,0c0.1,0.3,0.3,0.6,0.4,0.8
	c0.1,0.2,0.2,0.4,0.3,0.6c0.1,0.1,0.1,0.2,0.1,0.3h-0.7c0,0-0.1,0-0.1,0c-0.1,0-0.1,0-0.2,0h-2c-0.1,0-0.3,0-0.4,0c0,0,0-0.1,0-0.1
	c0-0.2-0.1-0.4-0.1-0.6c0-0.1-0.1-0.3-0.1-0.4c0-0.2-0.1-0.4-0.1-0.6c0-0.2-0.1-0.4-0.1-0.6c0-0.1,0-0.2-0.1-0.4L15.1,17.5
	C15,17.5,15.1,17.5,15.1,17.5z"/>
<path class="st5" d="M11.4,17.9c0.1,0,0.2,0,0.3,0c0.3,0,0.6,0,0.9-0.1c0.3,0,0.7,0,1,0c0,0,0.1,0,0.1,0l0,0c0,0,0,0,0,0.1
	c0.1,0.3,0.3,0.6,0.4,0.9c0.1,0.2,0.2,0.5,0.3,0.7c0.1,0.2,0.1,0.4,0.2,0.6c0.1,0.2,0.1,0.3,0.2,0.5c0,0,0,0.1,0,0.1
	c-0.1,0-0.2,0-0.2,0c-0.1,0-0.1,0-0.2,0h-0.3c0,0-0.1,0-0.1,0c-0.1,0-0.2,0-0.2,0c-0.1,0-0.1,0-0.2,0c-0.1,0-0.2,0-0.2,0
	c-0.2,0-0.3,0-0.5,0c0,0,0,0,0,0c-0.1,0-0.3,0-0.4,0c-0.1,0-0.3,0-0.4,0c-0.1,0-0.2,0-0.3,0c0,0,0-0.1,0-0.1c0-0.1,0-0.2,0-0.3
	c0-0.1,0-0.2,0-0.3c0-0.1,0-0.2,0-0.3c0-0.1,0-0.2,0-0.3c0-0.1,0-0.2,0-0.4c0-0.1,0-0.2,0-0.3c0-0.1,0-0.3,0-0.4
	C11.4,18.2,11.4,18.1,11.4,17.9z"/>
<path class="st5" d="M19,17.6c0.3,0,0.5,0.1,0.8,0.1c0.2,0,0.4,0.1,0.6,0.1c0.2,0,0.5,0.1,0.7,0.1c0,0,0,0,0.1,0l0,0
	c0,0,0,0.1,0,0.1c0.1,0.1,0.2,0.3,0.2,0.4c0.2,0.4,0.4,0.7,0.5,1.1c0.2,0.3,0.3,0.7,0.4,1c0.1,0.1,0.1,0.2,0.1,0.4
	c-0.1,0-0.1,0-0.2,0c-0.1,0-0.2,0-0.3,0c-0.1,0-0.3,0-0.4,0c-0.1,0-0.3,0-0.4,0c-0.2,0-0.3,0-0.5,0c-0.1,0-0.2,0-0.3,0
	c0,0-0.1,0-0.1,0c-0.1,0-0.2,0-0.4,0c-0.1,0-0.2,0-0.3,0h0c0-0.1,0-0.2,0-0.2c-0.1-0.3-0.2-0.6-0.2-1c-0.1-0.5-0.3-1.1-0.4-1.6
	C19,17.7,19,17.6,19,17.6z"/>
<path class="st5" d="M22.5,17.9c0.1,0,0.2,0,0.3,0c0.4,0.1,0.9,0.1,1.3,0.2c0.1,0,0.2,0,0.3,0.1c0.1,0.2,0.2,0.4,0.4,0.5
	c0.2,0.3,0.3,0.6,0.5,0.8c0.2,0.4,0.3,0.7,0.5,1.1c0.1,0.1,0.1,0.3,0.1,0.4c0,0,0,0-0.1,0c-0.1,0-0.2,0-0.3,0c-0.1,0-0.2,0-0.4,0
	c0,0,0,0-0.1,0c-0.1,0-0.1,0-0.2,0c0,0-0.1,0-0.1,0c-0.1,0-0.3,0-0.4,0c-0.1,0-0.2,0-0.3,0c0,0,0,0,0,0c0,0-0.1,0-0.1,0
	c-0.1,0-0.3,0-0.4,0c0,0,0,0,0,0c-0.1,0-0.1,0-0.2,0c0,0,0-0.1,0-0.1c-0.1-0.3-0.2-0.7-0.3-1c-0.1-0.3-0.2-0.7-0.3-1
	C22.6,18.4,22.5,18.2,22.5,17.9C22.5,17.9,22.5,17.9,22.5,17.9z"/>
<path class="st6" d="M19,17.6c0,0.1,0,0.2,0.1,0.2c0.1,0.5,0.3,1.1,0.4,1.6c0.1,0.3,0.2,0.6,0.2,1c0,0.1,0,0.2,0,0.2H19l0,0
	c0-0.1-0.1-0.2-0.1-0.3c-0.1-0.2-0.2-0.4-0.3-0.6c-0.1-0.3-0.3-0.6-0.4-0.8l0,0l-0.7-1.4c0,0,0,0,0,0c0,0,0,0,0.1,0
	c0.1,0,0.3,0,0.4,0c0.1,0,0.1,0,0.2,0c0.2,0,0.4,0,0.7,0C18.9,17.5,18.9,17.5,19,17.6C19,17.5,19,17.5,19,17.6z"/>
<path class="st6" d="M11.4,17.9c0,0.1,0,0.3,0,0.4c0,0.1,0,0.3,0,0.4c0,0.1,0,0.2,0,0.3c0,0.1,0,0.2,0,0.4c0,0.1,0,0.2,0,0.3
	c0,0.1,0,0.2,0,0.3c0,0.1,0,0.2,0,0.3c0,0.1,0,0.2,0,0.3c0,0,0,0.1,0,0.1c0,0,0,0,0,0c-0.1,0-0.3,0-0.4,0c-0.1,0-0.2,0-0.3,0
	c-0.2-0.5-0.4-1.1-0.6-1.6c-0.1-0.4-0.3-0.7-0.4-1.1c0,0,0-0.1,0-0.1c0,0,0-0.1,0.1-0.1c0.3,0,0.7-0.1,1-0.1c0.1,0,0.2,0,0.3,0
	C11.3,17.9,11.3,17.9,11.4,17.9C11.4,17.9,11.4,17.9,11.4,17.9z"/>
<path class="st1" d="M5.1,23.6c0,0,0-0.1,0-0.1c0-0.1,0-0.2,0-0.4c0,0,0,0,0-0.1c0-0.1,0.1-0.2,0.2-0.2c0.1-0.1,0.2-0.2,0.3-0.3
	c0.1-0.1,0.1-0.1,0.2-0.1C6,22.2,6.2,22.1,6.3,22c0.3-0.2,0.7-0.3,1-0.5c0.2-0.1,0.5-0.2,0.7-0.2s0.4-0.1,0.7-0.1
	c0.2,0,0.3-0.1,0.5-0.1c0.1,0,0.2,0,0.4,0c0.1,0,0.1,0,0.2,0c0.2,0,0.3-0.1,0.5-0.1c0.1,0,0.2,0,0.2,0c0.1,0,0.2,0,0.3,0
	c0,0,0.1,0,0.1,0c0,0,0,0.1,0,0.2c0,0.1,0,0.2-0.1,0.4h0c-0.1,0-0.2,0-0.3,0c-0.1,0-0.2,0-0.2,0c-0.2,0-0.3,0-0.5,0.1
	c-0.1,0-0.1,0-0.2,0c-0.1,0-0.2,0-0.3,0c-0.1,0-0.2,0-0.3,0c-0.1,0-0.1,0-0.2,0c0,0,0,0,0,0c-0.4,0-0.8,0.1-1.2,0.2
	c-0.3,0.1-0.7,0.2-1,0.4c-0.2,0.1-0.4,0.2-0.6,0.4c-0.1,0.1-0.3,0.2-0.4,0.4C5.5,23.2,5.3,23.4,5.1,23.6C5.2,23.6,5.2,23.6,5.1,23.6
	C5.1,23.6,5.1,23.6,5.1,23.6z"/>
<path class="st7" d="M25.9,21.1c0-0.1-0.1-0.3-0.1-0.4c-0.1-0.4-0.3-0.7-0.5-1.1c-0.1-0.3-0.3-0.6-0.5-0.8c-0.1-0.2-0.2-0.4-0.4-0.5
	c0.1,0,0.3,0.1,0.4,0.1c0.2,0,0.4,0.1,0.6,0.1c0,0,0,0,0.1,0c0,0,0.1,0.1,0.1,0.1c0.1,0,0.1,0,0.2,0.1c0,0.1,0,0.2,0.1,0.3
	c0.1,0.5,0.3,0.9,0.4,1.4c0.1,0.3,0.2,0.5,0.2,0.8c0,0,0,0.1,0,0.1c-0.1,0-0.1,0-0.2,0c-0.1,0-0.2,0-0.3,0c0,0,0,0-0.1,0
	C26,21.1,25.9,21.1,25.9,21.1L25.9,21.1z"/>
<path class="st3" d="M13.7,17.8L13.7,17.8c0-0.1-0.1-0.1-0.1-0.1c0.1,0,0.2,0,0.3-0.1c0.3-0.1,0.6-0.1,1-0.2c0,0,0.1,0,0.1,0
	c0,0,0.1,0,0.1,0c0,0-0.1,0-0.1,0c0,0-0.1,0-0.1,0c-0.1,0-0.2,0-0.3,0C14.4,17.6,14.1,17.7,13.7,17.8C13.8,17.8,13.8,17.8,13.7,17.8
	z"/>
<path class="st3" d="M21.2,17.8L21.2,17.8C21.2,17.8,21.2,17.8,21.2,17.8C21.2,17.8,21.3,17.8,21.2,17.8l1.1-0.1c0,0,0,0,0,0
	c0,0,0.1,0,0.1,0c0,0,0,0,0,0c0,0,0,0,0,0c0,0,0,0,0,0c0,0,0,0,0,0c-0.1,0-0.3,0-0.4,0c-0.1,0-0.2,0-0.3,0c-0.1,0-0.2,0-0.3,0
	C21.4,17.9,21.3,17.8,21.2,17.8L21.2,17.8z"/>
<path class="st6" d="M32.9,23.9c-0.1,0-0.1,0-0.2-0.1C32.8,23.8,32.9,23.8,32.9,23.9L32.9,23.9z"/>
<path class="st8" d="M5.8,25.4c0.1,0.1,0.2,0.3,0.3,0.4c0,0.1,0.1,0.1,0.2,0.2c0.3,0.2,0.7,0.3,1,0.4c0.3,0.1,0.5,0.1,0.8,0.2
	c0.2,0,0.4,0.1,0.6,0.1c0.2,0,0.4,0,0.6,0.1c0.1,0,0.1,0,0.2,0l0.2,0c0,0,0.1,0,0.1,0c0.1,0,0.1,0,0.2,0h0.3c0,0,0.1,0,0.1,0
	c0.1,0,0.1,0,0.2,0h0.3c0,0,0.1,0,0.1,0c0.1,0,0.1,0,0.2,0c0.3,0.1,0.6,0.2,1,0.3c0.3,0.1,0.7,0.2,1,0.2c0.1,0,0.3,0,0.4,0.1
	c0.1,0,0.2,0,0.3,0c0,0,0.1,0,0.1,0c0.2,0,0.3,0,0.5,0c0.1,0,0.3,0,0.4,0c0.2,0,0.4-0.1,0.6-0.1c0.1,0,0.2,0,0.3-0.1
	c0,0,0.1,0,0.1,0c0.2,0,0.3,0,0.5,0c0.4,0,0.8,0,1.1,0c0.2,0,0.4,0,0.6-0.1c0.1,0,0.2,0,0.2,0c0,0,0.1,0,0.1,0
	c0.2,0,0.3-0.1,0.5-0.1c0.3-0.1,0.6-0.2,0.9-0.2c0,0,0.1,0,0.1,0c0,0,0.1,0,0.1,0c0.2-0.1,0.4-0.1,0.7-0.2c0.3-0.1,0.6-0.1,0.8-0.1
	c0.2,0,0.4-0.1,0.6-0.1c0,0,0.1,0,0.1,0c0.1,0,0.1,0,0.2,0c0.3-0.1,0.6-0.2,0.8-0.4l0.4-0.2c0.2,0,0.3,0,0.5,0c0.1,0,0.2,0,0.3,0
	c0.1,0,0.2,0,0.4,0c0.2,0,0.4-0.1,0.5-0.1c0.1,0,0.2-0.1,0.3-0.1c0,0,0,0,0,0c0.2-0.1,0.3-0.1,0.5-0.2c0.2-0.1,0.4-0.2,0.6-0.2
	c0,0,0,0,0,0c0.3-0.1,0.5-0.1,0.8-0.2c0.1,0,0.2-0.1,0.4-0.1c0.1,0,0.1,0,0.2,0.1c0.4,0.2,0.8,0.5,1.2,0.7c0,0,0,0,0.1,0
	c-0.1,0.1-0.1,0.2-0.1,0.3c0,0,0,0.1,0,0.1c0,0.1,0,0.2,0,0.3c0,0,0,0,0,0c0,0.1-0.1,0.2-0.2,0.3c-0.1,0.1-0.1,0.1-0.2,0.1
	c-0.2,0.1-0.4,0.3-0.6,0.5c-0.1,0.1-0.2,0.3-0.3,0.4c0,0,0,0,0,0c-0.2,0.2-0.5,0.4-0.7,0.6c-0.3,0.1-0.6,0.3-0.8,0.3
	c-0.1,0-0.1,0-0.2,0c-0.1,0-0.1,0-0.2,0c-0.1,0-0.2,0-0.4,0c-0.1,0-0.1,0-0.2,0c-0.3,0-0.7,0.1-1,0.2c-0.2,0.1-0.4,0.1-0.5,0.3
	c-0.1,0-0.1,0.1-0.2,0.2c-0.2,0.2-0.5,0.3-0.8,0.5c-0.2,0.1-0.5,0.2-0.8,0.2c-0.1,0-0.2,0-0.3,0c-0.2,0-0.3,0-0.5,0
	c-0.2,0-0.5,0-0.7,0.1c-0.1,0-0.3,0.1-0.5,0.1c0,0-0.1,0-0.1,0c-0.2,0-0.3,0-0.5,0.1c-0.1,0-0.2,0-0.3,0c-0.1,0-0.2,0-0.4-0.1
	c-0.1,0-0.3-0.1-0.4-0.1c-0.1,0-0.1,0-0.2,0c-0.2,0-0.3,0-0.5,0.1c-0.2,0.1-0.4,0.1-0.6,0.2c-0.2,0.1-0.5,0.2-0.7,0.2
	c-0.1,0-0.2,0-0.2,0c-0.2,0-0.3,0-0.5-0.1c-0.2-0.1-0.3-0.1-0.5-0.1c0,0,0,0-0.1,0c0,0-0.1,0-0.1,0c-0.1,0-0.1,0-0.2,0
	c-0.1,0-0.1,0-0.2,0c-0.1,0-0.2,0-0.2,0c0,0,0,0-0.1,0c-0.1,0-0.1,0-0.2,0c-0.1,0-0.2,0-0.3,0c-0.1,0-0.1,0-0.2,0
	c-0.2,0-0.4-0.1-0.6-0.2c-0.2-0.1-0.5-0.1-0.7-0.2c-0.2,0-0.4,0-0.6,0c-0.1,0-0.2,0-0.3,0c0,0,0,0-0.1,0c-0.1,0-0.1,0-0.2,0
	c-0.1,0-0.2,0-0.3,0c-0.1,0-0.1,0-0.2,0c-0.1,0-0.2,0-0.3-0.1c-0.2-0.1-0.4-0.1-0.5-0.1c-0.1,0-0.2,0-0.3,0c-0.2,0-0.4,0-0.5,0
	c-0.1,0-0.3,0-0.4-0.1c-0.1,0-0.3-0.1-0.4-0.2C8,29.3,8,29.2,7.9,29.2c-0.1-0.2-0.3-0.3-0.5-0.4c-0.1,0-0.3-0.1-0.4-0.1
	c-0.2-0.1-0.3-0.1-0.4-0.3c-0.1-0.1-0.2-0.3-0.2-0.4c0-0.1-0.1-0.2-0.1-0.3c-0.1-0.1-0.1-0.2-0.2-0.4C6,27.2,6,27,6,26.9
	c0-0.1,0-0.3,0-0.4c0-0.1,0-0.1,0.1-0.2c0,0,0,0,0,0c0,0-0.1,0-0.1,0c-0.1,0-0.1-0.1-0.1-0.2c0-0.1,0-0.3,0-0.4
	C5.8,25.6,5.8,25.5,5.8,25.4C5.8,25.4,5.8,25.4,5.8,25.4z"/>
<path class="st5" d="M28,24.6c-0.1,0-0.2,0.1-0.4,0.1c-0.3,0.1-0.5,0.1-0.8,0.2c0,0,0,0,0,0c0-0.3,0-0.7,0-1c0,0,0,0,0,0
	c0-0.2,0-0.3,0-0.5c0-0.1,0-0.3,0-0.4c0,0,0,0,0,0c0-0.1,0-0.2,0-0.4s0-0.2,0-0.4c0-0.2,0-0.4,0-0.5c0.1,0,0.2,0,0.2,0
	c0,0,0.1,0,0.2,0c0.1,0,0.3,0,0.4,0c0.2,0,0.3,0,0.5,0c0.3,0,0.6,0.1,0.8,0.2c0.2,0.1,0.5,0.2,0.7,0.3c0.2,0.1,0.4,0.2,0.6,0.3
	c0.3,0.2,0.6,0.3,0.8,0.5c0.1,0.1,0.3,0.2,0.4,0.3c0,0,0.1,0.1,0.1,0.1c0,0,0,0,0,0.1c0,0,0,0,0,0c0,0-0.1,0-0.1,0
	c-0.3,0.1-0.7,0.3-1,0.4c-0.2,0.1-0.5,0.1-0.7,0.2c-0.2,0-0.4,0.1-0.6,0.1c-0.2,0.1-0.4,0.1-0.7,0.2C28.3,24.5,28.1,24.5,28,24.6
	C28,24.6,28,24.6,28,24.6z"/>
<path class="st7" d="M26.6,21.6c0,0.2,0,0.4,0,0.5c0,0.1,0,0.2,0,0.4c0,0.1,0,0.2,0,0.4c0,0,0,0,0,0c0,0.1,0,0.3,0,0.4
	c0,0.2,0,0.3,0,0.5c0,0,0,0,0,0c0,0.3,0,0.7,0,1c-0.2,0.1-0.4,0.2-0.6,0.2c-0.2,0.1-0.3,0.1-0.5,0.2c0,0,0,0,0,0c0,0,0,0,0-0.1
	c0-0.2,0.1-0.4,0.1-0.5c0-0.2,0-0.3,0.1-0.5c0-0.2,0-0.4,0-0.6c0,0,0,0,0,0c0-0.2,0-0.3,0-0.5c0-0.1,0-0.3,0-0.4c0-0.3,0-0.5,0-0.8
	c0-0.2,0-0.3,0-0.5c0.1,0,0.2,0,0.3,0C26.4,21.6,26.5,21.6,26.6,21.6L26.6,21.6z"/>
<path class="st9" d="M26.6,21.6c-0.1,0-0.2,0-0.3,0c-0.1,0-0.2,0-0.3,0l0,0c0-0.1,0-0.2,0-0.4c0,0,0.1,0,0.1,0c0,0,0,0,0.1,0
	c0.1,0,0.2,0,0.3,0c0.1,0,0.1,0,0.2,0h0c0,0.1,0,0.1,0,0.2C26.6,21.5,26.6,21.5,26.6,21.6z"/>
<path class="st5" d="M32.7,23.8C32.7,23.8,32.7,23.8,32.7,23.8C32.7,23.8,32.7,23.8,32.7,23.8C32.7,23.8,32.7,23.8,32.7,23.8
	C32.8,23.8,32.7,23.8,32.7,23.8z"/>
<path class="st10" d="M7,11.5c0,0,0.1,0,0.1,0c0.4-0.2,0.9-0.3,1.4-0.4c0.1,0,0.1,0,0.2,0c0.1,0,0.3,0,0.4,0
	c0.5,0.1,1.1,0.2,1.6,0.3c0.9,0.2,1.8,0.5,2.6,0.9c0.1,0,0.2,0.1,0.3,0.2c0,0,0,0.1,0,0.1c-0.2,0.3-0.5,0.5-0.8,0.7
	c-0.3,0.2-0.5,0.4-0.8,0.5c0,0,0,0-0.1,0c-0.1,0-0.1-0.1-0.2-0.1c-0.4-0.2-0.8-0.4-1.3-0.5c-0.2-0.1-0.4-0.1-0.7-0.1
	c-0.1,0-0.1,0-0.2,0c-0.1,0-0.2,0-0.4,0c-0.1,0-0.2,0-0.3,0c-0.1,0-0.2,0-0.3,0.1c-0.1,0.1-0.3,0.1-0.4,0.2c0,0,0,0,0,0
	c-0.3-0.3-0.5-0.6-0.8-0.9C7.2,12.1,7.1,11.8,7,11.5C7,11.6,7,11.6,7,11.5z"/>
<path class="st11" d="M7,11.5C7,11.6,7,11.6,7,11.5c0.1,0.3,0.3,0.5,0.4,0.8c0.2,0.3,0.5,0.6,0.8,0.9c0,0,0,0,0,0c0,0,0,0-0.1,0
	c-0.2,0.1-0.4,0.2-0.6,0.3c-0.4,0.2-0.8,0.4-1.3,0.6c0,0-0.1,0-0.1,0.1c-0.1,0-0.2,0-0.2,0C5.5,14,5,13.8,4.5,13.5
	c-0.2-0.1-0.4-0.3-0.6-0.5c-0.1-0.1-0.1-0.1-0.2-0.2c0,0-0.1-0.1-0.1-0.2c0,0,0.1,0,0.1-0.1c0.3-0.2,0.7-0.4,1.1-0.5
	c0.6-0.2,1.2-0.4,1.8-0.5C6.7,11.6,6.8,11.6,7,11.5z"/>
<path class="st12" d="M6.2,14.3C6.2,14.3,6.2,14.2,6.2,14.3c0.5-0.3,0.9-0.5,1.4-0.7c0.2-0.1,0.4-0.2,0.6-0.3c0,0,0.1,0,0.1,0
	c0.1,0,0.3-0.1,0.4-0.2C8.7,13,8.8,13,8.9,13c0.1,0,0.2,0,0.3,0c0.1,0,0.2,0,0.4,0c0.1,0,0.1,0,0.2,0c0.2,0,0.4,0.1,0.7,0.1
	c0.4,0.1,0.9,0.3,1.3,0.5c0.1,0,0.1,0.1,0.2,0.1c0,0,0,0,0.1,0c0,0-0.1,0.1-0.1,0.1c-0.3,0.2-0.6,0.3-0.9,0.5
	c-0.4,0.2-0.8,0.4-1.2,0.5c-0.1,0-0.2,0-0.3,0c-0.2,0-0.4,0-0.6-0.1c-0.2,0-0.4-0.1-0.6-0.1c-0.4-0.1-0.7-0.1-1.1-0.2
	C6.9,14.5,6.5,14.4,6.2,14.3C6.2,14.3,6.2,14.3,6.2,14.3z"/>
<path class="st10" d="M26.3,12.2c0.4,0.3,0.8,0.6,1.1,0.9c0,0,0,0,0,0c0.1,0.1,0.2,0.3,0.3,0.4c0.4,0.9,0.7,1.8,0.9,2.7
	c0.1,0.5,0.2,0.9,0.3,1.4c0,0.1,0,0.1,0,0.2c0,0.1,0,0.1-0.1,0.1c-0.3,0-0.6-0.1-0.8-0.2c-0.3-0.1-0.7-0.2-1-0.4c0-0.1,0-0.2,0-0.2
	c0-0.2,0-0.3-0.1-0.5c0-0.2-0.1-0.5-0.2-0.7c-0.1-0.2-0.2-0.5-0.3-0.7c-0.1-0.3-0.3-0.5-0.4-0.8c0,0-0.1-0.1-0.1-0.1
	c-0.1-0.1-0.2-0.2-0.3-0.2c0,0,0,0-0.1-0.1c0,0,0-0.1,0-0.1c0.1-0.3,0.2-0.7,0.3-1C26,12.7,26.2,12.4,26.3,12.2z"/>
<path class="st11" d="M26.3,12.2c-0.2,0.2-0.3,0.5-0.4,0.7c-0.1,0.3-0.2,0.7-0.3,1c0,0,0,0.1,0,0.1c0,0-0.1,0-0.1,0
	c0,0-0.1-0.1-0.1-0.1c-0.5-0.3-1-0.6-1.6-0.9c0,0-0.1,0-0.1,0c-0.1-0.1-0.1-0.1-0.1-0.2c-0.1-0.4-0.1-0.9-0.1-1.3c0-0.3,0-0.6,0-1
	c0-0.1,0.1-0.2,0.1-0.3c0,0,0,0,0.1,0c0.1,0,0.1,0.1,0.2,0.1c0.4,0.2,0.7,0.5,1.1,0.7C25.5,11.3,25.9,11.7,26.3,12.2
	C26.3,12.2,26.3,12.2,26.3,12.2z"/>
<path class="st12" d="M23.7,13c0,0,0.1,0,0.1,0c0.5,0.3,1.1,0.6,1.6,0.9c0,0,0.1,0.1,0.1,0.1c0,0,0.1,0,0.1,0c0,0,0,0,0.1,0.1
	c0.1,0.1,0.2,0.2,0.3,0.2c0,0,0.1,0.1,0.1,0.1c0.2,0.2,0.3,0.5,0.4,0.8c0.1,0.2,0.2,0.5,0.3,0.7c0.1,0.2,0.1,0.5,0.2,0.7
	c0,0.2,0,0.3,0.1,0.5c0,0.1,0,0.1,0,0.2c0,0-0.1,0-0.1,0c-0.4-0.2-0.7-0.4-1.1-0.6c-0.3-0.2-0.5-0.3-0.8-0.5C25,16.1,25,16,24.9,16
	c-0.2-0.3-0.4-0.7-0.5-1c-0.2-0.5-0.4-1-0.6-1.5C23.8,13.3,23.8,13.2,23.7,13C23.7,13,23.7,13,23.7,13z"/>
<path class="st7" d="M11,26.7C11,26.8,10.9,26.8,11,26.7l-0.4,0c-0.1,0-0.1,0-0.2,0c0,0-0.1,0-0.1,0H10c-0.1,0-0.1,0-0.2,0
	c0,0-0.1,0-0.1,0l-0.2,0l0.1-0.2c0.1-0.3,0.2-0.5,0.3-0.8c0.1-0.5,0.3-1,0.4-1.4c0.1-0.4,0.2-0.9,0.3-1.3c0.1-0.3,0.2-0.7,0.2-1
	c0-0.2,0.1-0.3,0.1-0.5c0,0,0,0,0-0.1h0c0.1,0,0.2,0,0.3,0c0,0,0,0,0,0c0.1,0,0.1,0,0.2,0c0,0,0,0,0.1,0c0.1,0,0.1,0,0.2,0h0
	c0,0.1,0,0.3,0,0.4c0,0.1,0,0.2,0,0.4c0,0.1,0,0.3,0,0.4c0,0.1,0,0.3,0,0.4c0,0,0,0,0,0c0,0.1,0,0.2,0,0.3c0,0.1,0,0.2,0,0.4
	c0,0.1,0,0.2,0,0.2c0,0.1,0,0.2,0,0.3c0,0.1,0,0.2,0,0.3c0,0.1,0,0.2,0,0.2c0,0.1,0,0.2,0,0.3c0,0.1,0,0.2,0,0.3
	c0,0.2,0,0.3-0.1,0.5c0,0.2-0.1,0.4-0.1,0.6C11,26.5,11,26.6,11,26.7z"/>
<path class="st9" d="M11.6,21.3c-0.1,0-0.1,0-0.2,0c0,0,0,0-0.1,0c-0.1,0-0.1,0-0.2,0c0,0,0,0,0,0c-0.1,0-0.2,0-0.3,0
	c0-0.1,0-0.2,0.1-0.4c0-0.1,0-0.1,0-0.2v0c0.1,0,0.2,0,0.3,0c0.1,0,0.3,0,0.4,0c0,0,0,0.1,0,0.1c0,0,0,0.1,0,0.1
	C11.6,21.2,11.6,21.3,11.6,21.3z"/>
<path class="st7" d="M13.7,17.8C13.8,17.8,13.8,17.8,13.7,17.8c0.3-0.1,0.6-0.2,0.9-0.2c0.1,0,0.2,0,0.3,0c0,0,0.1,0,0.1,0l0,0.3
	c0,0.1,0,0.2,0.1,0.4c0,0.2,0.1,0.4,0.1,0.6c0,0.2,0.1,0.4,0.1,0.6c0,0.1,0.1,0.3,0.1,0.4c0,0.2,0.1,0.4,0.1,0.6c0,0,0,0.1,0,0.1
	c0,0,0,0,0,0h-0.7l0,0c0,0,0-0.1,0-0.1c0-0.2-0.1-0.3-0.2-0.5c-0.1-0.2-0.1-0.4-0.2-0.6c-0.1-0.2-0.2-0.5-0.3-0.7
	C14.1,18.5,13.9,18.2,13.7,17.8C13.8,17.8,13.8,17.8,13.7,17.8z"/>
<path class="st1" d="M15.5,20.6C15.6,20.6,15.6,20.6,15.5,20.6c0.1,0,0.3,0,0.4,0h2c0.1,0,0.1,0,0.2,0c0,0,0,0,0.1,0H19l0,0
	c0,0.1,0,0.2,0,0.3h-1.1c0,0-0.1,0-0.1,0c-0.1,0-0.1,0-0.2,0h-0.9c0,0-0.1,0-0.1,0c-0.1,0-0.1,0-0.2,0l-0.4,0c0,0-0.1,0-0.1,0
	c-0.1,0-0.2,0-0.3,0h0C15.6,20.9,15.6,20.7,15.5,20.6z"/>
<path class="st1" d="M14.8,20.6L14.8,20.6C14.9,20.6,14.9,20.7,14.8,20.6c0.1,0.2,0.1,0.3,0.1,0.5c0,0,0,0,0,0h-0.3c0,0-0.1,0-0.1,0
	c-0.1,0-0.1,0-0.2,0c-0.2,0-0.3,0-0.5,0c-0.1,0-0.2,0-0.3,0c0,0,0,0-0.1,0c0,0-0.1,0-0.1,0c-0.2,0-0.3,0-0.5,0c0,0,0,0,0,0
	c0,0-0.1,0-0.1,0c0,0-0.1,0-0.1,0c-0.1,0-0.3,0-0.4,0c-0.2,0-0.3,0-0.5,0.1h0c0-0.1,0-0.2,0-0.3c0,0,0-0.1,0-0.1c0,0,0-0.1,0-0.1
	c0,0,0,0,0,0c0.1,0,0.2,0,0.3,0c0.1,0,0.3,0,0.4,0c0.1,0,0.3,0,0.4,0c0,0,0,0,0,0c0.2,0,0.3,0,0.5,0c0.1,0,0.2,0,0.2,0
	c0.1,0,0.1,0,0.2,0c0.1,0,0.2,0,0.2,0c0,0,0.1,0,0.1,0h0.3c0.1,0,0.1,0,0.2,0C14.7,20.6,14.8,20.6,14.8,20.6z"/>
<path class="st7" d="M21.2,17.8L21.2,17.8c0.1,0,0.2,0,0.3,0c0.1,0,0.2,0,0.3,0c0.1,0,0.2,0,0.3,0c0.1,0,0.3,0,0.4,0c0,0,0,0,0,0
	c0.1,0.3,0.1,0.5,0.2,0.8c0.1,0.3,0.2,0.7,0.3,1c0.1,0.3,0.2,0.7,0.3,1c0,0,0,0.1,0,0.1h0c-0.1,0-0.3,0-0.4,0c0,0,0,0,0,0
	c-0.1,0-0.2,0-0.2,0c0,0,0,0,0,0c0-0.1-0.1-0.2-0.1-0.4c-0.1-0.3-0.3-0.7-0.4-1c-0.2-0.4-0.4-0.7-0.5-1.1
	C21.4,18.2,21.3,18.1,21.2,17.8C21.2,17.9,21.2,17.9,21.2,17.8z"/>
<path class="st1" d="M22.6,20.8C22.6,20.8,22.6,20.8,22.6,20.8l0,0.3h0c-0.1,0-0.1,0-0.2,0s-0.1,0-0.2,0c0,0,0,0,0,0
	c-0.1,0-0.1,0-0.2,0c-0.1,0-0.1,0-0.2,0c-0.1,0-0.2,0-0.3,0c-0.1,0-0.1,0-0.2,0c-0.1,0-0.2,0-0.2,0c-0.1,0-0.2,0-0.3,0
	c0,0-0.1,0-0.1,0c0,0-0.1,0-0.1,0l-0.7,0c0-0.1,0-0.2,0-0.4c0.1,0,0.2,0,0.3,0c0.1,0,0.2,0,0.4,0c0,0,0.1,0,0.1,0c0.1,0,0.2,0,0.3,0
	c0.2,0,0.3,0,0.5,0c0.1,0,0.3,0,0.4,0c0.1,0,0.3,0,0.4,0c0.1,0,0.2,0,0.3,0C22.4,20.8,22.5,20.8,22.6,20.8z"/>
<path class="st9" d="M19.7,20.6c0,0.1,0,0.2,0,0.4h0c-0.1,0-0.2,0-0.2,0c0,0-0.1,0-0.1,0H19c0,0,0,0,0,0c0-0.1,0-0.2,0-0.3
	L19.7,20.6L19.7,20.6z"/>
<path class="st1" d="M25.9,21.1c0,0.1,0,0.2,0,0.4c-0.1,0-0.2,0-0.3,0c-0.1,0-0.1,0-0.2,0c-0.1,0-0.2,0-0.3,0c-0.1,0-0.2,0-0.3,0
	c-0.1,0-0.2,0-0.3,0c-0.1,0-0.2,0-0.3,0c0,0,0,0,0,0c-0.1,0-0.2,0-0.3,0c-0.1,0-0.3,0-0.4,0c0,0,0,0,0,0c0,0-0.1,0-0.1,0h0
	c0-0.1,0-0.2,0-0.3h0c0.1,0,0.1,0,0.2,0c0,0,0,0,0,0c0.1,0,0.3,0,0.4,0c0.1,0,0.1,0,0.1,0c0,0,0,0,0,0c0.1,0,0.2,0,0.3,0
	c0.1,0,0.3,0,0.4,0c0,0,0.1,0,0.1,0c0.1,0,0.1,0,0.2,0c0,0,0,0,0.1,0c0.1,0,0.2,0,0.4,0C25.6,21.1,25.7,21.1,25.9,21.1
	C25.8,21.1,25.9,21.1,25.9,21.1L25.9,21.1z"/>
<path class="st5" d="M15.6,21c0.1,0,0.2,0,0.3,0c0,0,0.1,0,0.1,0h0.4c0.1,0,0.1,0,0.2,0c0,0,0.1,0,0.1,0h0.9c0.1,0,0.1,0,0.2,0
	c0,0,0.1,0,0.1,0H19c0,0,0,0,0,0c0,0,0,0.1,0,0.1c0,0.2,0,0.3,0,0.5c0,0.2,0,0.3,0,0.5c0,0.2,0,0.3,0,0.5c0,0,0,0,0,0
	c0,0.1,0,0.3,0,0.4c0,0.1,0,0.3,0,0.4c0,0,0,0,0,0c0,0.1,0,0.2,0,0.3c0,0.1,0,0.2,0,0.3c0,0.1,0,0.2,0,0.2c0,0.1,0,0.2,0,0.3
	c0,0.1,0,0.2,0,0.3c0,0.2,0,0.3-0.1,0.5c0,0.1,0,0.1,0,0.2c0,0.2-0.1,0.4-0.1,0.6c0,0.2-0.1,0.4-0.1,0.6c0,0.1,0,0.3-0.1,0.4
	c-0.1,0-0.2,0-0.2,0c-0.2,0-0.4,0-0.6,0.1c-0.4,0-0.8,0-1.1,0c-0.2,0-0.3,0-0.5,0c0,0-0.1,0-0.1,0c-0.1,0-0.2,0.1-0.3,0.1
	c0,0,0-0.1,0-0.1c0-0.1,0-0.2,0-0.3c0-0.1,0-0.2,0-0.3c0-0.2,0-0.4,0-0.7c0-0.2,0-0.4,0-0.5c0,0,0-0.1,0-0.1c0-0.1,0-0.2,0-0.2
	c0-1.3,0-2.6,0-3.9C15.6,21.2,15.6,21.1,15.6,21z"/>
<path class="st5" d="M11.6,21.3c0.2,0,0.3,0,0.5-0.1c0.1,0,0.3,0,0.4,0c0,0,0.1,0,0.1,0c0,0,0.1,0,0.1,0c0,0,0,0,0,0
	c0.2,0,0.3,0,0.5,0c0.1,0,0.1,0,0.1,0c0,0,0,0,0.1,0c0.1,0,0.2,0,0.3,0c0.2,0,0.3,0,0.5,0c0.1,0,0.1,0,0.2,0c0,0,0.1,0,0.1,0h0.3
	c0,0.1,0,0.1,0,0.2c0,0.1,0,0.3,0,0.4c0,0.1,0,0.2,0,0.4c0,0.1,0,0.2,0,0.2c0,0.1,0,0.2,0,0.2c0,0.1,0,0.2,0,0.3c0,0.1,0,0.2,0,0.3
	c0,0.1,0,0.3-0.1,0.4c0,0.1,0,0.3-0.1,0.4c0,0.2-0.1,0.5-0.1,0.7c0,0.3-0.1,0.5-0.1,0.8c0,0.2-0.1,0.5-0.1,0.7
	c-0.1,0.4-0.2,0.8-0.2,1.1c0,0,0,0.1,0,0.1c-0.1,0-0.2,0-0.3,0c-0.1,0-0.3,0-0.4-0.1c-0.3-0.1-0.7-0.1-1-0.2c-0.3-0.1-0.7-0.2-1-0.3
	c-0.1,0-0.1,0-0.2,0c0-0.1,0-0.2,0.1-0.3c0-0.2,0.1-0.4,0.1-0.6c0-0.2,0-0.3,0.1-0.5c0-0.1,0-0.2,0-0.3s0-0.2,0-0.3
	c0-0.1,0-0.2,0-0.2c0-0.1,0-0.2,0-0.3c0-0.1,0-0.2,0-0.3c0-0.1,0-0.2,0-0.2c0-0.1,0-0.2,0-0.4c0-0.1,0-0.2,0-0.3c0,0,0,0,0,0
	c0-0.1,0-0.3,0-0.4c0-0.1,0-0.3,0-0.4c0-0.1,0-0.2,0-0.4C11.6,21.6,11.6,21.5,11.6,21.3z"/>
<path class="st5" d="M19.7,21l0.7,0c0,0,0.1,0,0.1,0c0,0,0.1,0,0.1,0c0.1,0,0.2,0,0.3,0c0.1,0,0.2,0,0.2,0c0.1,0,0.1,0,0.2,0
	c0.1,0,0.2,0,0.3,0c0.1,0,0.1,0,0.2,0c0.1,0,0.1,0,0.2,0c0,0,0,0,0,0c0.1,0,0.1,0,0.2,0c0.1,0,0.1,0,0.2,0c0,0.2,0,0.5,0,0.7
	c0,0,0,0,0,0c0,0.1,0,0.3,0,0.4c0,0.1,0,0.3,0,0.4c0,0.2,0,0.4,0,0.6c0,0.2,0,0.3,0,0.5c0,0,0,0,0,0c0,0.1,0,0.3,0,0.4
	c0,0.1,0,0.3,0,0.4c0,0,0,0,0,0c0,0.1,0,0.2,0,0.3s0,0.2,0,0.3c0,0.1,0,0.2,0,0.2c0,0.1,0,0.2,0,0.2c0,0.1,0,0.2,0,0.3
	c0,0.1,0,0.2,0,0.3c0,0-0.1,0-0.1,0c-0.2,0-0.4,0.1-0.6,0.1c-0.3,0-0.6,0.1-0.8,0.1c-0.2,0-0.5,0.1-0.7,0.2c0,0-0.1,0-0.1,0
	c0,0,0-0.1,0-0.1c0-0.2,0-0.3,0-0.5c0-0.4,0-0.8,0-1.2c0,0,0-0.1,0-0.1c0-0.1,0-0.2,0-0.3c0-0.3,0-0.6,0-0.8c0-0.3,0-0.5,0-0.8
	c0-0.2,0-0.4,0-0.6c0-0.2,0-0.5,0-0.7C19.7,21.3,19.8,21.2,19.7,21L19.7,21z"/>
<path class="st5" d="M23.3,21.2c0,0,0.1,0,0.1,0c0,0,0,0,0,0c0.1,0,0.3,0,0.4,0c0.1,0,0.2,0,0.3,0c0,0,0,0,0,0c0.1,0,0.2,0,0.3,0
	c0.1,0,0.2,0,0.3,0c0.1,0,0.2,0,0.3,0c0.1,0,0.2,0,0.3,0c0.1,0,0.1,0,0.2,0c0.1,0,0.2,0.1,0.3,0l0,0c0,0.2,0,0.3,0,0.5
	c0,0.3,0,0.5,0,0.8c0,0.1,0,0.3,0,0.4c0,0.2,0,0.3,0,0.5c0,0,0,0,0,0c0,0.2,0,0.4,0,0.6c0,0.2,0,0.3-0.1,0.5c0,0.2-0.1,0.4-0.1,0.5
	c0,0,0,0,0,0.1c-0.1,0-0.2,0.1-0.3,0.1c-0.2,0-0.4,0.1-0.5,0.1c-0.1,0-0.2,0-0.4,0c-0.1,0-0.2,0-0.3,0c-0.2,0-0.3,0-0.5,0
	c0,0,0,0,0-0.1c0-0.1,0-0.2,0-0.2c0-0.1,0-0.2,0-0.3c0-0.2,0-0.4,0-0.6c0-0.1,0-0.3,0-0.4c0,0,0,0,0,0c0-0.2,0-0.3,0-0.5
	c0-0.1,0-0.3,0-0.4c0,0,0,0,0,0c0-0.1,0-0.2,0-0.4c0-0.1,0-0.3,0-0.4c0,0,0,0,0,0c0-0.1,0-0.2,0-0.3c0-0.1,0-0.2,0-0.4
	S23.3,21.3,23.3,21.2z"/>
<path class="st7" d="M14,27.4C14,27.4,14,27.3,14,27.4c0.1-0.5,0.2-0.8,0.3-1.2c0-0.2,0.1-0.5,0.1-0.7c0-0.3,0.1-0.5,0.1-0.8
	c0-0.2,0.1-0.5,0.1-0.7c0-0.1,0-0.3,0.1-0.4c0-0.1,0-0.3,0.1-0.4c0-0.1,0-0.2,0-0.3c0-0.1,0-0.2,0-0.3c0-0.1,0-0.2,0-0.2
	c0-0.1,0-0.2,0-0.2c0-0.1,0-0.3,0-0.4c0-0.1,0-0.3,0-0.4c0-0.1,0-0.1,0-0.2c0,0,0,0,0,0c0.2,0,0.3,0,0.5,0c0.1,0,0.1,0,0.2,0h0
	c0,0.1,0,0.1,0,0.2c0,1.3,0,2.6,0,3.9c0,0.1,0,0.2,0,0.2c0,0,0,0.1,0,0.1c0,0.2,0,0.4,0,0.5c0,0.2,0,0.4,0,0.7c0,0.1,0,0.2,0,0.3
	c0,0.1,0,0.2,0,0.3c0,0,0,0.1,0,0.1c-0.2,0-0.4,0.1-0.6,0.1c-0.1,0-0.3,0-0.4,0C14.4,27.4,14.2,27.4,14,27.4
	C14,27.4,14,27.4,14,27.4z"/>
<path class="st7" d="M19.7,21c0,0.2,0,0.4,0,0.6c0,0.2,0,0.5,0,0.7c0,0.2,0,0.4,0,0.6c0,0.3,0,0.5,0,0.8c0,0.3,0,0.6,0,0.8
	c0,0.1,0,0.2,0,0.3c0,0,0,0.1,0,0.1c0,0.4,0,0.8,0,1.2c0,0.2,0,0.3,0,0.5c0,0,0,0.1,0,0.1c0,0,0,0-0.1,0c-0.3,0.1-0.6,0.2-0.9,0.2
	c-0.2,0-0.3,0.1-0.5,0.1c0,0-0.1,0-0.1,0c0-0.1,0-0.3,0.1-0.4c0-0.2,0.1-0.4,0.1-0.6c0-0.2,0.1-0.4,0.1-0.6c0-0.1,0-0.1,0-0.2
	c0-0.2,0-0.3,0.1-0.5c0-0.1,0-0.2,0-0.3c0-0.1,0-0.2,0-0.3c0-0.1,0-0.2,0-0.2c0-0.1,0-0.2,0-0.3s0-0.2,0-0.3c0,0,0,0,0,0
	c0-0.1,0-0.3,0-0.4s0-0.3,0-0.4c0,0,0,0,0,0c0-0.2,0-0.3,0-0.5c0-0.2,0-0.3,0-0.5c0-0.2,0-0.3,0-0.5c0,0,0-0.1,0-0.1h0.4
	c0,0,0.1,0,0.1,0C19.6,21,19.6,21,19.7,21z"/>
<path class="st7" d="M23.3,21.2c0,0.1,0,0.2,0,0.4s0,0.2,0,0.4c0,0.1,0,0.2,0,0.3c0,0,0,0,0,0c0,0.1,0,0.3,0,0.4c0,0.1,0,0.2,0,0.4
	c0,0,0,0,0,0c0,0.1,0,0.3,0,0.4c0,0.2,0,0.3,0,0.5c0,0,0,0,0,0c0,0.1,0,0.3,0,0.4c0,0.2,0,0.4,0,0.6c0,0.1,0,0.2,0,0.3
	c0,0.1,0,0.2,0,0.2c0,0,0,0,0,0.1l-0.4,0.2c-0.3,0.2-0.5,0.3-0.8,0.4c-0.1,0-0.1,0-0.2,0c0-0.1,0-0.2,0-0.3s0-0.2,0-0.3
	c0-0.1,0-0.2,0-0.2c0-0.1,0-0.2,0-0.2c0-0.1,0-0.2,0-0.3c0-0.1,0-0.2,0-0.3c0,0,0,0,0,0c0-0.1,0-0.3,0-0.4c0-0.1,0-0.3,0-0.4
	c0,0,0,0,0,0c0-0.2,0-0.3,0-0.5c0-0.2,0-0.4,0-0.6c0-0.1,0-0.3,0-0.4c0-0.1,0-0.3,0-0.4c0,0,0,0,0,0c0-0.2,0-0.5,0-0.7h0
	c0.1,0,0.1,0,0.2,0c0.1,0,0.2,0,0.2,0c0,0,0.1,0,0.1,0C23.2,21.2,23.2,21.2,23.3,21.2L23.3,21.2z"/>
<path class="st9" d="M15.6,21c-0.1,0-0.1,0-0.2,0c-0.2,0-0.3,0-0.5,0c0-0.1,0-0.3-0.1-0.4c0,0,0-0.1,0-0.1h0.7
	C15.6,20.7,15.6,20.9,15.6,21z"/>
<path class="st9" d="M23.3,21.2c-0.1,0-0.1,0-0.2,0c0,0,0,0-0.1,0c-0.1,0-0.2,0-0.2,0c-0.1,0-0.1,0-0.2,0l0-0.3c0.1,0,0.2,0,0.2,0
	c0,0,0,0,0,0c0.1,0,0.3,0,0.4,0C23.3,21,23.3,21.1,23.3,21.2z"/>
</svg>
